<svg width="19" height="19" viewBox="0 0 19 19" fill="none" xmlns="http://www.w3.org/2000/svg">
<path d="M0.124982 7.14302C0.122398 7.30138 0.16801 7.4568 0.255771 7.58865C0.343532 7.7205 0.469296 7.82256 0.616388 7.8813L8.11717 10.8821L11.118 18.3836C11.1759 18.5287 11.2761 18.6531 11.4054 18.7407C11.5348 18.8283 11.6875 18.8751 11.8437 18.875H11.8562C12.0145 18.8726 12.1682 18.8221 12.2971 18.7303C12.426 18.6385 12.524 18.5097 12.5781 18.361L18.8281 1.17349C18.8793 1.03366 18.8894 0.882131 18.8573 0.736737C18.8253 0.591342 18.7523 0.45814 18.6471 0.352818C18.5418 0.247496 18.4087 0.174439 18.2633 0.142253C18.1179 0.110066 17.9664 0.12009 17.8265 0.171143L0.639044 6.42114C0.490268 6.47539 0.361464 6.57352 0.269672 6.70256C0.17788 6.8316 0.127425 6.98468 0.124982 7.14302Z" fill="black"/>
</svg>
