<svg width="33" height="33" viewBox="0 0 33 33" fill="none" xmlns="http://www.w3.org/2000/svg">
<path d="M29.4643 0H3.53571C1.58371 0 0 1.58371 0 3.53571V29.4643C0 31.4163 1.58371 33 3.53571 33H29.4643C31.4163 33 33 31.4163 33 29.4643V3.53571C33 1.58371 31.4163 0 29.4643 0ZM20.4261 28.2636C19.8074 28.3741 19.579 27.9911 19.579 27.6743C19.579 27.2766 19.5938 25.2435 19.5938 23.6009C19.5938 22.4518 19.2107 21.7225 18.7614 21.3395C21.4868 21.0375 24.3596 20.6618 24.3596 15.9549C24.3596 14.6143 23.8808 13.944 23.1 13.0821C23.2252 12.7654 23.6451 11.4616 22.9748 9.76741C21.9509 9.45067 19.6085 11.0859 19.6085 11.0859C18.6362 10.8134 17.5828 10.6734 16.5442 10.6734C15.5056 10.6734 14.4522 10.8134 13.4799 11.0859C13.4799 11.0859 11.1375 9.45067 10.1136 9.76741C9.4433 11.4542 9.8558 12.758 9.98839 13.0821C9.20759 13.944 8.83929 14.6143 8.83929 15.9549C8.83929 20.6397 11.5868 21.0375 14.3123 21.3395C13.9587 21.6563 13.642 22.2013 13.5315 22.9821C12.8317 23.2989 11.0417 23.844 9.97366 21.9583C9.30335 20.7944 8.09531 20.6987 8.09531 20.6987C6.90201 20.6839 8.01429 21.45 8.01429 21.45C8.80982 21.8183 9.36964 23.2326 9.36964 23.2326C10.0842 25.4203 13.502 24.6837 13.502 24.6837C13.502 25.7076 13.5167 27.3723 13.5167 27.6743C13.5167 27.9911 13.2958 28.3741 12.6696 28.2636C7.80804 26.6357 4.40491 22.0098 4.40491 16.6031C4.40491 9.84107 9.57589 4.70692 16.3379 4.70692C23.1 4.70692 28.5804 9.84107 28.5804 16.6031C28.5877 22.0098 25.2877 26.6431 20.4261 28.2636ZM13.2 23.7629C13.06 23.7924 12.9275 23.7335 12.9127 23.6377C12.898 23.5272 12.9938 23.4315 13.1337 23.402C13.2737 23.3873 13.4062 23.4462 13.421 23.542C13.4431 23.6377 13.3473 23.7335 13.2 23.7629ZM12.5002 23.6967C12.5002 23.7924 12.3897 23.8734 12.2424 23.8734C12.0804 23.8882 11.9699 23.8071 11.9699 23.6967C11.9699 23.6009 12.0804 23.5199 12.2277 23.5199C12.3676 23.5051 12.5002 23.5862 12.5002 23.6967ZM11.4911 23.6156C11.4616 23.7114 11.3143 23.7556 11.1891 23.7114C11.0491 23.6819 10.9533 23.5714 10.9828 23.4757C11.0123 23.3799 11.1596 23.3357 11.2848 23.3652C11.4321 23.4094 11.5279 23.5199 11.4911 23.6156ZM10.585 23.2179C10.5188 23.2989 10.3788 23.2842 10.2683 23.1737C10.1578 23.0779 10.1283 22.9379 10.202 22.8717C10.2683 22.7906 10.4083 22.8054 10.5188 22.9158C10.6145 23.0116 10.6513 23.1589 10.585 23.2179ZM9.91473 22.5475C9.84844 22.5917 9.72321 22.5475 9.64219 22.4371C9.56116 22.3266 9.56116 22.2013 9.64219 22.1498C9.72321 22.0835 9.84844 22.135 9.91473 22.2455C9.99576 22.356 9.99576 22.4886 9.91473 22.5475ZM9.43594 21.833C9.36964 21.8993 9.25915 21.8625 9.17813 21.7888C9.0971 21.6931 9.08237 21.5826 9.14866 21.531C9.21496 21.4647 9.32545 21.5016 9.40647 21.5752C9.4875 21.671 9.50223 21.7815 9.43594 21.833ZM8.94241 21.2879C8.91295 21.3542 8.81719 21.369 8.73616 21.3174C8.6404 21.2732 8.59621 21.1922 8.62567 21.1259C8.65513 21.0817 8.73616 21.0596 8.83192 21.0964C8.92768 21.148 8.97188 21.229 8.94241 21.2879Z" fill="black"/>
</svg>
