<svg width="33" height="33" viewBox="0 0 33 33" fill="none" xmlns="http://www.w3.org/2000/svg">
<path fill-rule="evenodd" clip-rule="evenodd" d="M4.08089e-07 2.757C4.08089e-07 2.0258 0.290469 1.32455 0.807507 0.80751C1.32454 0.290472 2.0258 3.67547e-06 2.757 3.67547e-06H30.24C30.6024 -0.000588152 30.9613 0.070298 31.2962 0.208604C31.6311 0.346909 31.9355 0.549918 32.1919 0.806008C32.4482 1.0621 32.6516 1.36624 32.7903 1.70102C32.9289 2.0358 33.0002 2.39464 33 2.757V30.24C33.0004 30.6024 32.9293 30.9614 32.7909 31.2963C32.6524 31.6313 32.4492 31.9356 32.193 32.192C31.9368 32.4483 31.6326 32.6516 31.2977 32.7903C30.9628 32.9289 30.6039 33.0002 30.2415 33H2.757C2.39482 33 2.03619 32.9286 1.7016 32.79C1.367 32.6513 1.06301 32.4481 0.806976 32.192C0.550946 31.9358 0.347898 31.6317 0.209434 31.297C0.0709699 30.9624 -0.000196643 30.6037 4.08089e-07 30.2415V2.757ZM13.062 12.582H17.5305V14.826C18.1755 13.536 19.8255 12.375 22.305 12.375C27.0585 12.375 28.185 14.9445 28.185 19.659V28.392H23.3745V20.733C23.3745 18.048 22.7295 16.533 21.0915 16.533C18.819 16.533 17.874 18.1665 17.874 20.733V28.392H13.062V12.582ZM4.812 28.1865H9.624V12.375H4.812V28.185V28.1865ZM10.3125 7.218C10.3216 7.63001 10.2483 8.03968 10.0969 8.42297C9.94546 8.80627 9.71903 9.15546 9.43085 9.45005C9.14267 9.74465 8.79855 9.97871 8.41868 10.1385C8.03882 10.2983 7.63086 10.3806 7.21875 10.3806C6.80664 10.3806 6.39868 10.2983 6.01882 10.1385C5.63895 9.97871 5.29483 9.74465 5.00665 9.45005C4.71847 9.15546 4.49204 8.80627 4.34064 8.42297C4.18924 8.03968 4.11593 7.63001 4.125 7.218C4.14281 6.40928 4.47658 5.63969 5.05483 5.07403C5.63308 4.50837 6.40984 4.19163 7.21875 4.19163C8.02767 4.19163 8.80442 4.50837 9.38267 5.07403C9.96092 5.63969 10.2947 6.40928 10.3125 7.218Z" fill="black"/>
</svg>
