<svg xmlns="http://www.w3.org/2000/svg" viewBox="0 0 437.59 303.42"><defs><style>.cls-1{fill:#3c2313;}.cls-2{fill:#fff;}.cls-3{fill:#ce1417;}</style></defs><g id="Layer_2" data-name="Layer 2"><g id="Layer_1-2" data-name="Layer 1"><path class="cls-1" d="M20.13,293.54c-1.1,0-2.06-1.41-2.88-4.25-.31-1.08-.7-3-1.17-5.66q-1.83.25-4.8.9l-4.79,1c-.59,1.57-1.62,3.86-3.07,6.89a1.76,1.76,0,0,1-1.57,1,1.81,1.81,0,0,1-1.28-.52A1.69,1.69,0,0,1,0,291.6q0-.87,2.72-6.57A1.88,1.88,0,0,1,2.41,284c0-1,.59-1.59,1.76-1.87q2.05-3.85,5.19-8.85,4.26-6.83,5.3-6.82,1.43,0,1.95,2l1.13,6,2.68,12.51,1,2.84a7.83,7.83,0,0,1,.52,1.94,1.72,1.72,0,0,1-.56,1.3A1.81,1.81,0,0,1,20.13,293.54ZM13.78,273l-5.14,8.29q2.17-.56,6.6-1.35Z"/><path class="cls-1" d="M40.89,294.28c-1,0-1.61-.57-1.74-1.69l-.5-3.94a33.06,33.06,0,0,1-.26-3.94c0-.34,0-.91.07-1.71s.06-1.38.06-1.71c0-2.59-.48-3.89-1.44-3.89-1.34,0-2.63.8-3.85,2.4a16.25,16.25,0,0,0-2.59,5.5c0,.47-.08,1.06-.16,1.76a13.26,13.26,0,0,0-.11,1.75,15.42,15.42,0,0,0,.11,1.62c.07.72.1,1.26.1,1.62a1.79,1.79,0,0,1-.49,1.31,1.88,1.88,0,0,1-2.55,0,1.82,1.82,0,0,1-.48-1.31,16.08,16.08,0,0,0-.12-1.62,16.08,16.08,0,0,1-.12-1.62c0-1.24.09-2.95.27-5.14s.26-3.9.26-5.13c0-.39,0-1-.07-1.71s-.06-1.33-.06-1.71a1.69,1.69,0,0,1,.51-1.27,1.78,1.78,0,0,1,1.27-.5c1.1,0,1.71.78,1.82,2.34l.05,2.11q3-4,6.21-4a4,4,0,0,1,4,2.53,13.21,13.21,0,0,1,.85,5v1.81l0,1.68a24.85,24.85,0,0,0,.39,3.86,25.58,25.58,0,0,1,.38,3.84,1.71,1.71,0,0,1-.51,1.28A1.78,1.78,0,0,1,40.89,294.28Z"/><path class="cls-1" d="M50.63,284.83c0,.72,0,1.8.06,3.23s.06,2.51.06,3.23a1.82,1.82,0,0,1-.48,1.3,1.88,1.88,0,0,1-2.55,0,1.78,1.78,0,0,1-.49-1.3c0-.72,0-1.79-.07-3.23s-.06-2.51-.06-3.23c0-1.12.06-2.53.18-4.22s.18-3.09.18-4.21a1.82,1.82,0,0,1,.5-1.32,1.85,1.85,0,0,1,2.53,0,1.82,1.82,0,0,1,.5,1.32c0,1.12-.06,2.53-.18,4.21S50.63,283.71,50.63,284.83Zm-.81-14.61a2.07,2.07,0,0,1-1.5-.61,2,2,0,0,1,0-2.95,2.07,2.07,0,0,1,1.5-.61,2,2,0,0,1,1.48.61,2.06,2.06,0,0,1,0,2.95A2,2,0,0,1,49.82,270.22Z"/><path class="cls-1" d="M79.56,294.49a1.62,1.62,0,0,1-1.73-1.56c-.22-1.32-.43-3.18-.65-5.58l-.61-5.58a12.09,12.09,0,0,0-.61-2.42c-.41-1.08-.85-1.62-1.33-1.62a6.23,6.23,0,0,0-2.49,1.13,10.33,10.33,0,0,0-2.26,1.67c0,1.13,0,2.26.09,3.38l.54,4.81a40.13,40.13,0,0,1,.34,4.69,1.81,1.81,0,0,1-.5,1.31,1.82,1.82,0,0,1-2.53,0,1.81,1.81,0,0,1-.5-1.31c0-1.45-.14-3.59-.44-6.43s-.44-5-.44-6.43a6.68,6.68,0,0,0-.54-3,9.1,9.1,0,0,0-2.55,1.87l-2.13,2.38a10.38,10.38,0,0,1-.91,1.13c0,.72-.07,1.78-.2,3.19s-.2,2.44-.2,3.11a9.81,9.81,0,0,0,.17,1.51,8.54,8.54,0,0,1,.17,1.4,1.6,1.6,0,0,1-.55,1.24,1.81,1.81,0,0,1-1.28.51q-2,0-2-4.63c0-.71.07-1.79.2-3.22s.2-2.5.2-3.22-.06-1.59-.17-2.86-.17-2.23-.17-2.87c0-2.73.61-4.09,1.83-4.09a1.75,1.75,0,0,1,1.29.61,1.89,1.89,0,0,1,.58,1.33,9.59,9.59,0,0,1-.09,1.07,9.51,9.51,0,0,0-.09,1.09L60,279a10.83,10.83,0,0,1,2.75-3.48,5.23,5.23,0,0,1,3.1-1.56,3.88,3.88,0,0,1,3.88,2.81,6.51,6.51,0,0,1,2.36-2,7.13,7.13,0,0,1,3.13-.66q3,0,4.1,3.24a45.61,45.61,0,0,1,.74,5.06q.51,3.09,1.3,10.31a1.47,1.47,0,0,1-.49,1.22A1.84,1.84,0,0,1,79.56,294.49Z"/><path class="cls-1" d="M99.38,294.19c-.22,0-.64-.27-1.24-.79a7.52,7.52,0,0,1-1.2-1.32,23,23,0,0,1-3,1.42,6.91,6.91,0,0,1-2.2.47q-4.22,0-6.13-2.37c-1.22-1.49-1.82-3.77-1.82-6.84a10.37,10.37,0,0,1,3-7.45,9.64,9.64,0,0,1,7.16-3.09,9.19,9.19,0,0,1,3.5.81c1.64.67,2.45,1.48,2.45,2.43a1.21,1.21,0,0,1-.36.86,13.66,13.66,0,0,0-.28,2.25c-.06,1-.1,2.38-.11,4a14.67,14.67,0,0,0,.3,3.53,27.67,27.67,0,0,0,1.13,3.16q.14.33.42,1l.11.3a1.54,1.54,0,0,1-.51,1.19A1.66,1.66,0,0,1,99.38,294.19Zm-3.74-12.51a14.75,14.75,0,0,1,.1-1.68c.07-.6.16-1.25.3-1.93a9.17,9.17,0,0,0-1.15-.51,2.71,2.71,0,0,0-.76-.16,6.23,6.23,0,0,0-4.81,2.28,8.58,8.58,0,0,0-1,9.67,3.58,3.58,0,0,0,3.13,1.47,6.25,6.25,0,0,0,2.93-.63,10.49,10.49,0,0,0,1.82-1.36A64.1,64.1,0,0,1,95.64,281.68Z"/><path class="cls-1" d="M108.76,278.86l-.27,8.94c0,.95,0,2.34-.15,4.18-.12,1.19-.7,1.79-1.76,1.79s-1.76-.61-1.76-1.83c0-1.45.06-3.63.2-6.54s.19-5.09.19-6.54c0-1.9,0-4.06.09-6.5s.09-4.61.09-6.51a1.78,1.78,0,1,1,3.55,0c0,1.9,0,4.06-.09,6.51S108.76,277,108.76,278.86Z"/><path class="cls-1" d="M143.47,293.2a1.8,1.8,0,0,1-1.27-.57A30.33,30.33,0,0,0,129,284.71l.14,3.53.09,3.54a1.82,1.82,0,0,1-.51,1.32,1.83,1.83,0,0,1-2.58,0,1.82,1.82,0,0,1-.51-1.32c0-.95,0-2.36-.13-4.24s-.14-3.29-.14-4.23a49.12,49.12,0,0,1,.36-4.93c.24-2.19.36-3.82.36-4.91,0-.62-.06-1.52-.17-2.72s-.17-2.11-.17-2.72a3,3,0,0,1,.57-1.8,2,2,0,0,1,1.89-.86l4.34.34a11.93,11.93,0,0,1,4.16,1.21q7.28,3.87,7.28,9.44a6.22,6.22,0,0,1-2.48,4.84,13.35,13.35,0,0,1-5,2.57,28.13,28.13,0,0,1,8.36,6.34,1.91,1.91,0,0,1,.47,1.22,1.79,1.79,0,0,1-.55,1.31A1.72,1.72,0,0,1,143.47,293.2ZM132,269.42l-2.66-.22.18,2.18c.08.89.13,1.61.13,2.18a33.16,33.16,0,0,1-.24,3.58l-.38,3.58h.79c.35,0,.62,0,.8,0a15.09,15.09,0,0,0,6.87-1.22,7.77,7.77,0,0,0,1.87-1.46,2.78,2.78,0,0,0,1-1.71c0-1.66-1-3.22-2.85-4.66A10.84,10.84,0,0,0,132,269.42Z"/><path class="cls-1" d="M157.27,293.83a10.18,10.18,0,0,1-6.58-2,7.67,7.67,0,0,1-2.75-6.3,13.12,13.12,0,0,1,2.26-7.84,7.7,7.7,0,0,1,6.59-3.46,10.33,10.33,0,0,1,4.87,1A4.06,4.06,0,0,1,164,279a4.1,4.1,0,0,1-2,3.28,29,29,0,0,1-3.81,2l-6.88,3.26a6.57,6.57,0,0,0,2.51,2.25,7.77,7.77,0,0,0,3.5.76,11.18,11.18,0,0,0,2.92-.47,4.67,4.67,0,0,0,2.73-1.56q.62-1,1.32-1a1.56,1.56,0,0,1,1.12.48,1.46,1.46,0,0,1,.49,1.1q0,2-3.22,3.44A13.21,13.21,0,0,1,157.27,293.83Zm-.48-16.39a4.61,4.61,0,0,0-3.65,1.7,11.41,11.41,0,0,0-2.18,5.12l5.52-2.63a23.34,23.34,0,0,0,4.64-2.75A6.1,6.1,0,0,0,156.79,277.44Z"/><path class="cls-1" d="M181.2,279.15a1.47,1.47,0,0,1-1.38-.66,6.19,6.19,0,0,1-.47-1.95c-.9.23-2.29.65-4.16,1.26-1.93.77-2.9,1.72-2.91,2.84a5.41,5.41,0,0,0,1.06.29,17.35,17.35,0,0,1,6.15,2,6.11,6.11,0,0,1,2.93,5.47,4.83,4.83,0,0,1-2.53,4.43,10.46,10.46,0,0,1-5.33,1.22,12.84,12.84,0,0,1-4.5-.79c-1.84-.67-2.77-1.61-2.77-2.8a1.68,1.68,0,0,1,.57-1.26,1.83,1.83,0,0,1,1.29-.54,2.4,2.4,0,0,1,1.44.86,4,4,0,0,0,1.94.68,11.29,11.29,0,0,0,2,.22,9,9,0,0,0,2.67-.36c1.11-.35,1.67-.9,1.67-1.66q0-2.44-3.42-3.31l-1.87-.41a10.18,10.18,0,0,1-3.4-1.22,3.46,3.46,0,0,1-1.46-3,5.5,5.5,0,0,1,3.55-5.37,28.39,28.39,0,0,1,3.45-1.16,27,27,0,0,0,3.4-1.14,4,4,0,0,1,1.6-.32,1.72,1.72,0,0,1,1.27.5,1.81,1.81,0,0,1,.49,1.32,7.75,7.75,0,0,0,.23,1.52,7.74,7.74,0,0,1,.22,1.53,1.81,1.81,0,0,1-.49,1.32A1.72,1.72,0,0,1,181.2,279.15Z"/><path class="cls-1" d="M195.13,294.14a8.89,8.89,0,0,1-6.16-2.23,7.94,7.94,0,0,1-2.59-6.17,14.22,14.22,0,0,1,2.43-7.54q2.7-4.32,6.08-4.32a11.24,11.24,0,0,1,3.94.83c1.84.7,2.76,1.57,2.76,2.59a1.82,1.82,0,0,1-.45,1.21,1.47,1.47,0,0,1-2,.22l-.75-.62a5.54,5.54,0,0,0-3.47-.85q-1.83,0-3.63,3.28a11.28,11.28,0,0,0-1.64,5.2,4.64,4.64,0,0,0,1.62,3.74,5.82,5.82,0,0,0,3.89,1.27,5.47,5.47,0,0,0,2.3-.57l2.09-1.12a1.94,1.94,0,0,1,.77-.28,1.49,1.49,0,0,1,1.15.53,1.72,1.72,0,0,1,.49,1.21c0,.88-.93,1.72-2.77,2.54A10.47,10.47,0,0,1,195.13,294.14Z"/><path class="cls-1" d="M220.6,282.5c0,.86,0,2.16,0,3.88s0,3,0,3.89q0,.39.06,1.2c0,.54.06.95.06,1.21a1.66,1.66,0,0,1-.52,1.27,1.78,1.78,0,0,1-1.28.49c-.92,0-1.51-.57-1.76-1.71A11,11,0,0,1,212,293.9a6.79,6.79,0,0,1-3.9-1,4.69,4.69,0,0,1-2-3.36,60.17,60.17,0,0,1-.7-8.5,33.61,33.61,0,0,1,.54-5.61,1.61,1.61,0,0,1,1.71-1.56,1.81,1.81,0,0,1,1.3.49,1.7,1.7,0,0,1,.52,1.27,21.66,21.66,0,0,1-.26,2.64,20.13,20.13,0,0,0-.26,2.77c0,2,.06,3.72.19,5.15a17.93,17.93,0,0,0,.6,3.44,5.83,5.83,0,0,0,1.17.49,4.08,4.08,0,0,0,1.13.17,18.57,18.57,0,0,0,5.09-.77l0-3.65,0-3.5a57.24,57.24,0,0,1,.34-6.74,1.62,1.62,0,0,1,1.74-1.66,1.79,1.79,0,0,1,1.3.51,1.56,1.56,0,0,1,.49,1.26Z"/><path class="cls-1" d="M233.48,293.83a10.18,10.18,0,0,1-6.58-2,7.67,7.67,0,0,1-2.75-6.3,13.12,13.12,0,0,1,2.26-7.84A7.7,7.7,0,0,1,233,274.2a10.33,10.33,0,0,1,4.87,1,4.06,4.06,0,0,1,2.32,3.81,4.1,4.1,0,0,1-2,3.28,29,29,0,0,1-3.81,2l-6.88,3.26a6.57,6.57,0,0,0,2.51,2.25,7.77,7.77,0,0,0,3.5.76,11.18,11.18,0,0,0,2.92-.47,4.63,4.63,0,0,0,2.73-1.56q.62-1,1.32-1a1.56,1.56,0,0,1,1.12.48,1.47,1.47,0,0,1,.5,1.1c0,1.33-1.08,2.48-3.22,3.44A13.29,13.29,0,0,1,233.48,293.83ZM233,277.44a4.61,4.61,0,0,0-3.65,1.7,11.41,11.41,0,0,0-2.18,5.12l5.52-2.63a23.34,23.34,0,0,0,4.64-2.75A6.1,6.1,0,0,0,233,277.44Z"/><path class="cls-1" d="M274.07,272.81a1.85,1.85,0,0,1-1.73-1.34,3.17,3.17,0,0,0-.94-1.41,5.21,5.21,0,0,0-1.87-.2c-1.74,0-3.67,1.34-5.79,4q-4.32,5.36-4.32,10.16a5.84,5.84,0,0,0,1.49,4,4.76,4.76,0,0,0,3.69,1.72,8.1,8.1,0,0,0,3.73-.95,29.36,29.36,0,0,0,3.2-2.12,3.08,3.08,0,0,1,1.55-.76,1.67,1.67,0,0,1,1.29.59,1.89,1.89,0,0,1,.52,1.3,1.83,1.83,0,0,1-.68,1.42q-4.75,4.21-9.61,4.21a8.16,8.16,0,0,1-6.3-2.86,9.5,9.5,0,0,1-2.48-6.55q0-6.09,5.11-12.5,4.26-5.34,8.6-5.34a12.78,12.78,0,0,1,1.59.08,6,6,0,0,1,1.24.26,1.91,1.91,0,0,1,1.63-.92c.83,0,1.35.55,1.57,1.64a18.94,18.94,0,0,1,.29,3.58,2.19,2.19,0,0,1-.4,1.29A1.56,1.56,0,0,1,274.07,272.81Z"/><path class="cls-1" d="M285.65,294.06a7,7,0,0,1-5.2-2.23,9.53,9.53,0,0,1-2.55-6.67A11.64,11.64,0,0,1,280,278a8,8,0,0,1,7-3.66,5.93,5.93,0,0,1,5.46,3.3,12.72,12.72,0,0,1,1.42,6.4,11.64,11.64,0,0,1-2.09,6.82A7.14,7.14,0,0,1,285.65,294.06ZM286.73,278a4.5,4.5,0,0,0-4.12,2.51,9.18,9.18,0,0,0-1.17,4.65,5.59,5.59,0,0,0,1.42,4.06,3.77,3.77,0,0,0,2.79,1.21,4.37,4.37,0,0,0,3.22-1.37,5.79,5.79,0,0,0,1.62-4.08C290.66,280.33,289.41,278,286.73,278Z"/><path class="cls-1" d="M321.13,294.49a1.62,1.62,0,0,1-1.73-1.56c-.21-1.32-.43-3.18-.64-5.58l-.62-5.58a12.09,12.09,0,0,0-.61-2.42c-.4-1.08-.85-1.62-1.33-1.62a6.21,6.21,0,0,0-2.48,1.13,10.46,10.46,0,0,0-2.27,1.67c0,1.13,0,2.26.09,3.38l.54,4.81a40.13,40.13,0,0,1,.34,4.69,1.8,1.8,0,0,1-.49,1.31,1.84,1.84,0,0,1-2.54,0,1.8,1.8,0,0,1-.49-1.31q0-2.18-.44-6.43c-.3-2.83-.44-5-.44-6.43a6.82,6.82,0,0,0-.54-3,9.14,9.14,0,0,0-2.56,1.87l-2.12,2.38a10.71,10.71,0,0,1-.92,1.13c0,.72-.07,1.78-.2,3.19s-.2,2.44-.2,3.11a8.9,8.9,0,0,0,.18,1.51,9.86,9.86,0,0,1,.17,1.4,1.63,1.63,0,0,1-.55,1.24,1.85,1.85,0,0,1-1.29.51q-2,0-2-4.63c0-.71.06-1.79.2-3.22s.19-2.5.19-3.22-.05-1.59-.17-2.86-.17-2.23-.17-2.87c0-2.73.61-4.09,1.84-4.09a1.73,1.73,0,0,1,1.28.61,1.9,1.9,0,0,1,.59,1.33,9.59,9.59,0,0,1-.09,1.07,9.51,9.51,0,0,0-.09,1.09l0,1.89a11,11,0,0,1,2.76-3.48,5.21,5.21,0,0,1,3.09-1.56,3.9,3.9,0,0,1,3.89,2.81,6.48,6.48,0,0,1,2.35-2,7.16,7.16,0,0,1,3.13-.66q3,0,4.11,3.24a47,47,0,0,1,.73,5.06q.51,3.09,1.3,10.31a1.44,1.44,0,0,1-.49,1.22A1.82,1.82,0,0,1,321.13,294.49Z"/><path class="cls-1" d="M349.75,294.49a1.61,1.61,0,0,1-1.72-1.56c-.22-1.32-.43-3.18-.65-5.58l-.61-5.58a12.81,12.81,0,0,0-.61-2.42c-.41-1.08-.86-1.62-1.33-1.62a6.17,6.17,0,0,0-2.49,1.13,10.33,10.33,0,0,0-2.26,1.67c0,1.13,0,2.26.09,3.38l.54,4.81a42.46,42.46,0,0,1,.34,4.69,1.81,1.81,0,0,1-.5,1.31,1.82,1.82,0,0,1-2.53,0,1.81,1.81,0,0,1-.5-1.31q0-2.18-.44-6.43c-.29-2.83-.44-5-.44-6.43a6.68,6.68,0,0,0-.54-3,9.28,9.28,0,0,0-2.56,1.87l-2.12,2.38a10.71,10.71,0,0,1-.92,1.13c0,.72-.06,1.78-.19,3.19s-.2,2.44-.2,3.11a9.81,9.81,0,0,0,.17,1.51,9.86,9.86,0,0,1,.17,1.4,1.6,1.6,0,0,1-.55,1.24,1.81,1.81,0,0,1-1.28.51q-2,0-2-4.63c0-.71.07-1.79.2-3.22s.2-2.5.2-3.22-.06-1.59-.17-2.86-.17-2.23-.17-2.87c0-2.73.61-4.09,1.83-4.09a1.75,1.75,0,0,1,1.29.61,1.89,1.89,0,0,1,.58,1.33,9.59,9.59,0,0,1-.09,1.07,9.51,9.51,0,0,0-.09,1.09l0,1.89a10.83,10.83,0,0,1,2.75-3.48,5.21,5.21,0,0,1,3.1-1.56,3.89,3.89,0,0,1,3.88,2.81,6.51,6.51,0,0,1,2.36-2,7.09,7.09,0,0,1,3.13-.66q3,0,4.1,3.24a45.61,45.61,0,0,1,.74,5.06c.33,2.06.77,5.5,1.29,10.31a1.43,1.43,0,0,1-.48,1.22A1.84,1.84,0,0,1,349.75,294.49Z"/><path class="cls-1" d="M370.21,282.49c0,.87,0,2.16,0,3.89s0,3,0,3.89q0,.39.06,1.2c0,.54.06.94.06,1.21a1.67,1.67,0,0,1-.52,1.27,1.78,1.78,0,0,1-1.28.49c-.92,0-1.51-.57-1.76-1.71a11.08,11.08,0,0,1-5.18,1.17,6.92,6.92,0,0,1-3.91-1,4.68,4.68,0,0,1-2-3.37A58.7,58.7,0,0,1,355,281a33.61,33.61,0,0,1,.54-5.61,1.61,1.61,0,0,1,1.71-1.57,1.8,1.8,0,0,1,1.29.5,1.67,1.67,0,0,1,.53,1.27,21.66,21.66,0,0,1-.26,2.64,20.5,20.5,0,0,0-.27,2.77c0,2,.07,3.72.2,5.15a17.06,17.06,0,0,0,.6,3.43,5.88,5.88,0,0,0,1.17.5,4.08,4.08,0,0,0,1.13.17,18.23,18.23,0,0,0,5.09-.78l0-3.65,0-3.49a57.13,57.13,0,0,1,.34-6.74,1.62,1.62,0,0,1,1.74-1.66,1.82,1.82,0,0,1,1.3.5,1.59,1.59,0,0,1,.49,1.26Z"/><path class="cls-1" d="M388.49,294.28c-1,0-1.61-.57-1.75-1.69l-.5-3.94a32.94,32.94,0,0,1-.25-3.94q0-.51.06-1.71t.06-1.71c0-2.59-.48-3.89-1.43-3.89q-2,0-3.85,2.4a16.25,16.25,0,0,0-2.6,5.5c0,.47-.07,1.06-.16,1.76a15.22,15.22,0,0,0-.11,1.75c0,.36,0,.9.11,1.62s.11,1.26.11,1.62a1.79,1.79,0,0,1-.49,1.31,1.7,1.7,0,0,1-1.27.5,1.67,1.67,0,0,1-1.28-.5,1.83,1.83,0,0,1-.49-1.31,15.42,15.42,0,0,0-.11-1.62,16.08,16.08,0,0,1-.12-1.62c0-1.24.09-2.95.26-5.14s.26-3.9.26-5.13q0-.59-.06-1.71t-.06-1.71a1.69,1.69,0,0,1,.51-1.27,1.75,1.75,0,0,1,1.27-.5c1.1,0,1.71.78,1.81,2.34l.06,2.11q3-4,6.21-4a4.05,4.05,0,0,1,4,2.53,13.24,13.24,0,0,1,.84,5v1.81l0,1.68a24.85,24.85,0,0,0,.39,3.86,24.52,24.52,0,0,1,.39,3.84,1.71,1.71,0,0,1-.51,1.28A1.81,1.81,0,0,1,388.49,294.28Z"/><path class="cls-1" d="M398.22,284.83c0,.72,0,1.8.07,3.23s.06,2.51.06,3.23a1.78,1.78,0,0,1-.49,1.3,1.86,1.86,0,0,1-2.54,0,1.79,1.79,0,0,1-.5-1.3c0-.72,0-1.79-.06-3.23s-.06-2.51-.06-3.23c0-1.12.06-2.53.18-4.22s.18-3.09.18-4.21a1.81,1.81,0,0,1,.49-1.32,1.86,1.86,0,0,1,2.54,0,1.81,1.81,0,0,1,.49,1.32c0,1.12-.06,2.53-.18,4.21S398.22,283.71,398.22,284.83Zm-.81-14.61a2.06,2.06,0,0,1-1.49-.61,2,2,0,0,1,0-2.95,2.12,2.12,0,0,1,3,0,2.06,2.06,0,0,1,0,2.95A2,2,0,0,1,397.41,270.22Z"/><path class="cls-1" d="M416.34,277.67l-.89,0c-.34,0-.64,0-.89,0s-1.09.09-2.45.27l.34,10.63,0,.79,0,.92c.05,2.63-.58,3.94-1.89,3.94a1.79,1.79,0,0,1-1.25-.47,1.5,1.5,0,0,1-.53-1.16c0-.46,0-1.14.05-2.06s.06-1.59.06-2l-.36-10.5c-.88,0-2.21-.14-4-.31a1.63,1.63,0,0,1-1.6-1.78,1.8,1.8,0,0,1,.49-1.31,1.62,1.62,0,0,1,1.24-.53l3.78.31c0-.61,0-1.43-.08-2.46s-.08-1.76-.08-2.22a1.65,1.65,0,0,1,.52-1.25,1.76,1.76,0,0,1,1.27-.49q1.62,0,1.89,2.64c0,.45.06,1,.06,1.6l0,1.05,0,1.11c1.49-.19,2.34-.29,2.56-.29a10.15,10.15,0,0,1,2.44.18,1.58,1.58,0,0,1,1.1,1.7,1.8,1.8,0,0,1-.49,1.3A1.69,1.69,0,0,1,416.34,277.67Z"/><path class="cls-1" d="M437.35,277l-6.22,13.46c-1.54,3.27-2.71,6-3.53,8.22l-1.19,3.49a1.66,1.66,0,0,1-1.62,1.3,1.89,1.89,0,0,1-1.3-.5,1.61,1.61,0,0,1-.55-1.23q0-1.8,3.89-10.42l-6.44-12.39-.81-1.32a2.84,2.84,0,0,1-.49-1.38,1.92,1.92,0,0,1,1.84-1.85,1.47,1.47,0,0,1,1.27.63,70.62,70.62,0,0,1,6.57,12.09l2.66-6.21a60.43,60.43,0,0,1,2.78-5.54,1.71,1.71,0,0,1,1.51-1,1.85,1.85,0,0,1,1.3.52,1.63,1.63,0,0,1,.57,1.24A2.09,2.09,0,0,1,437.35,277Z"/><ellipse class="cls-2" cx="217.32" cy="122.64" rx="216.73" ry="103.89" transform="translate(-27.41 73.91) rotate(-18.18)"/><path class="cls-3" d="M23.81,134.89c0,.06.13.08.15.05l0,0-.08.13a2.11,2.11,0,0,0-.16.3c-.1.2-.19.42-.28.63-.18.43-.35.86-.51,1.3-.33.87-.64,1.75-.95,2.63q-.9,2.65-1.73,5.34c-1.1,3.57-2.12,7.16-3,10.79-.43,1.82-.84,3.64-1.15,5.48-.16.91-.29,1.83-.37,2.76,0,.46-.06.92-.06,1.37s.06.94,0,1.42c-.08,1.89-.35,3.74-.53,5.6a5.54,5.54,0,0,0,0,1.35l.06,1.4c.06.93,0,1.88.17,2.8a46.92,46.92,0,0,0,7.13,20.9,57.28,57.28,0,0,0,15.58,15.76,94.07,94.07,0,0,0,19.78,10.28,150.26,150.26,0,0,0,21.41,6.43,216.08,216.08,0,0,0,22.06,3.73q5.55.65,11.14,1.06c1.86.13,3.73.25,5.59.34l2.8.12,1.4.06.7,0,.36,0h.33a1.05,1.05,0,0,1,.39.17l-.35-.16a204.72,204.72,0,0,0,33.86,0l8.44-.79,8.41-1.09c2.81-.35,5.59-.88,8.38-1.31s5.57-1,8.35-1.51q16.66-3.21,33-7.84c5.45-1.5,10.86-3.18,16.23-4.92l4-1.36a10.36,10.36,0,0,0,1.81-.71,6.56,6.56,0,0,0,1.43-1.19,24.69,24.69,0,0,0,4.19-7l0-.09,0-.05a10.49,10.49,0,0,1,4.63-3.75,22.25,22.25,0,0,1,5.51-1.56c.49-.07.9-.14,1.45-.19a2.24,2.24,0,0,1,2.12,3.29,3.88,3.88,0,0,1-.23.37l-.2.28-.4.56-3.22,4.52.19-.5s0-.05,0,0a.37.37,0,0,0,.1.11,1.72,1.72,0,0,0,.23.17l.28.14-.45-.05a10.1,10.1,0,0,0,2-.65c.69-.31,1.39-.65,2.08-1,1.37-.72,2.73-1.51,4.08-2.32,2.7-1.62,5.35-3.34,8-5.1l1-.67.25-.16a2.63,2.63,0,0,1,.44-.24,2.33,2.33,0,0,1,1.05-.17,2.4,2.4,0,0,1,1.75,1,2.3,2.3,0,0,1,.31,2l-.89,2.32c-.36.74-.7,1.49-1.08,2.22a27.84,27.84,0,0,1-6.14,7.68,32.41,32.41,0,0,1-8.24,5.28,46.09,46.09,0,0,1-9.23,3.07,61,61,0,0,1-9.59,1.34c-1.61.1-3.23.14-4.85.11-.81,0-1.62,0-2.43-.09-.41,0-.82-.06-1.23-.1l-.64-.08-.33-.05-.44-.11h.71l-6.95,2.22L228,230.17c-1.15.38-2.31.73-3.49,1l-7,2c-1.17.32-2.34.67-3.52,1l-3.54.86-7.1,1.73-7.14,1.49-3.58.75-3.59.63c-2.4.42-4.79.86-7.2,1.25-9.62,1.49-19.31,2.57-29,3.16a204.72,204.72,0,0,1-29.3-.11h.1a287.49,287.49,0,0,1-38.69-4.1c-1.6-.3-3.2-.55-4.79-.9l-4.76-1.09c-3.19-.66-6.3-1.62-9.44-2.5-.78-.23-1.57-.43-2.35-.69l-2.31-.79-4.63-1.59L52,230.39l-2.26-.94-2.21-1.06a83.89,83.89,0,0,1-16.78-10.25,62.34,62.34,0,0,1-13.47-14.45A51.4,51.4,0,0,1,8.7,175.48a41.89,41.89,0,0,1,1-10l-.05.32A46,46,0,0,1,11,158.65c.57-2.3,1.26-4.57,2-6.8a104.16,104.16,0,0,1,5.65-12.95c1.07-2.1,2.25-4.13,3.42-6.17s2.44-4,3.77-5.95c2.58-3.92,5.44-7.65,8.36-11.31,11.89-14.52,26-27,41.22-37.82Q86.87,69.57,99,62.5c2-1.17,4.06-2.29,6.09-3.44l3-1.71,3.09-1.63,6.18-3.24c2-1.1,4.12-2.19,6.2-3.23A465.25,465.25,0,0,1,175,27.62l.11.28a463.06,463.06,0,0,0-50.95,22.55c-2.06,1.08-4.08,2.17-6.12,3.3l-6.13,3.32-3.06,1.67-3,1.74c-2,1.17-4,2.31-6,3.5-7.93,4.8-15.68,9.9-23.18,15.34-14.9,11-28.85,23.37-40.43,37.76-2.86,3.62-5.63,7.31-8.13,11.17-1.3,1.91-2.46,3.89-3.66,5.86s-2.27,4-3.3,6a99.49,99.49,0,0,0-5.4,12.63c-.75,2.16-1.4,4.35-1.93,6.56a44,44,0,0,0-1.15,6.59v.14l0,.17a41.1,41.1,0,0,0-.9,9.22,48.45,48.45,0,0,0,8.12,26.58A59.77,59.77,0,0,0,32.64,215.8a80.27,80.27,0,0,0,16.21,9.89l2.14,1,2.21.92,4.43,1.81L62.16,231l2.26.77c.76.26,1.54.45,2.3.68,3.08.86,6.14,1.8,9.28,2.46L80.68,236c1.56.35,3.15.59,4.72.89a288.48,288.48,0,0,0,38.27,4.24h.1a204,204,0,0,0,28.84.25c9.63-.54,19.25-1.57,28.8-3,2.39-.37,4.77-.8,7.15-1.2l3.57-.61,3.55-.72,7.1-1.45,7.05-1.69,3.53-.84c1.17-.29,2.33-.63,3.5-.95l7-1.93c1.17-.3,2.32-.65,3.47-1l3.46-1.09,6.92-2.18.18-.06.53.06.14,0,.26,0,.54.07c.38,0,.76.08,1.14.1.77.06,1.55.08,2.32.1,1.56,0,3.12,0,4.68-.09a58.78,58.78,0,0,0,9.25-1.26,44.09,44.09,0,0,0,8.81-2.88,30.8,30.8,0,0,0,7.75-4.92,25.91,25.91,0,0,0,5.71-7.09c.36-.68.68-1.37,1-2.06l.83-2.12a.28.28,0,0,0,0-.24.42.42,0,0,0-.25-.15.5.5,0,0,0-.12,0,.38.38,0,0,1-.08.05l-.25.16-1,.67c-2.65,1.76-5.33,3.48-8.08,5.12-1.37.82-2.76,1.62-4.2,2.36-.72.37-1.45.73-2.21,1.06a10.68,10.68,0,0,1-2.54.79l-.23,0-.23-.09a4.62,4.62,0,0,1-.59-.3,3.49,3.49,0,0,1-.55-.42,2.2,2.2,0,0,1-.5-.66,2,2,0,0,1-.2-1l0-.26.17-.24,3.17-4.42.4-.56.2-.27a1.12,1.12,0,0,0,.14-.21.34.34,0,0,0-.31-.5l-1.28.17a20.22,20.22,0,0,0-5,1.4,8.59,8.59,0,0,0-3.83,3l.07-.14a26.08,26.08,0,0,1-4.59,7.51,8.31,8.31,0,0,1-1.84,1.5l-.57.3c-.2.09-.36.13-.53.2l-1,.35-4.05,1.35c-5.42,1.74-10.85,3.39-16.33,4.89-11,3-22,5.63-33.18,7.73a297.75,297.75,0,0,1-33.77,4.57,205.32,205.32,0,0,1-34.09-.16l-.35-.15a.34.34,0,0,0,.22.13h-.2l-.34,0-.7,0-1.4-.07L118,238c-1.87-.1-3.74-.22-5.61-.37-3.73-.29-7.47-.66-11.19-1.12A216,216,0,0,1,79,232.62,151.23,151.23,0,0,1,57.51,226a95,95,0,0,1-19.89-10.48,57.6,57.6,0,0,1-15.69-16,47.31,47.31,0,0,1-7.11-21.2c-.13-.94-.1-1.87-.16-2.81l-.06-1.4a7.7,7.7,0,0,1,0-1.44c.2-1.87.48-3.72.56-5.57,0-.46,0-.9,0-1.39s0-1,.07-1.42c.08-.95.22-1.88.39-2.8.32-1.85.74-3.68,1.19-5.5.9-3.63,2-7.23,3.07-10.8.56-1.79,1.14-3.57,1.76-5.33q.46-1.34,1-2.64c.17-.44.34-.88.53-1.31.09-.22.19-.43.29-.65l.17-.32a1.16,1.16,0,0,1,.11-.16s.06-.07.1-.1a.25.25,0,0,1,.16,0,.28.28,0,0,1,.13.11Z"/><path class="cls-3" d="M21.52,137.66a18.28,18.28,0,0,1-1.34,3.89l-1.58,4c-.49,1.27-1,2.52-1.45,3.8a15.93,15.93,0,0,0-.55,1.87c-.07.3-.13.6-.17.9a3.93,3.93,0,0,0-.06.48l0,.22q-.06.24.12,0l.61.35a8.26,8.26,0,0,1,.2-3.89c.36-1.16,1.05-2.19,1-3.43a.5.5,0,0,0-1,0c0,1.33-.89,2.53-1.17,3.81a9.26,9.26,0,0,0,0,3.78.5.5,0,0,0,.61.35c.48-.12.57-.53.62-1a12.83,12.83,0,0,1,.42-2.12c.41-1.43,1-2.81,1.54-4.2L21,142.27a20.52,20.52,0,0,0,1.52-4.34c.08-.63-.88-.9-1-.27Z"/><path class="cls-3" d="M17.67,144.18a1.94,1.94,0,0,0-.82,1.29,5.31,5.31,0,0,1-.2,1,28.23,28.23,0,0,0-.89,2.69A15.81,15.81,0,0,1,14.25,154c-.37.62.33,1.17.89,1.23a1.94,1.94,0,0,0,1.88-.89,15,15,0,0,0,1.53-4.72,14.26,14.26,0,0,1,.66-2.2,9.76,9.76,0,0,0,.47-1.38c0-.19.05-.38.08-.57a1.87,1.87,0,0,1,0-.25.39.39,0,0,1-.2.32.9.9,0,0,0,.15-1.5,1.92,1.92,0,0,0-2.08.17Z"/><path class="cls-3" d="M13.66,154.84a14.49,14.49,0,0,1-.12,3.89c-.22,1.24-.51,2.47-.61,3.73,0,.52,2.83.17,2.9-.77.09-1.26.43-2.47.63-3.71a15.59,15.59,0,0,0,.1-3.92c-.06-.65-3-.1-2.9.78Z"/><path class="cls-3" d="M14.45,153.53a.67.67,0,0,0,.14.56c.05.06.11.1.15.16l-.11-.22a.29.29,0,0,1,0,.09v-.24a.83.83,0,0,1,0,.15l.09-.25c-.18.47-.39.94-.54,1.42a3.15,3.15,0,0,0-.13.61,3.18,3.18,0,0,1-.09.69l.09-.25a5.29,5.29,0,0,0-.43,1,.64.64,0,0,0,.32.64,1.75,1.75,0,0,0,1,.17,2.35,2.35,0,0,0,1.09-.39,1.21,1.21,0,0,0,.52-.7.75.75,0,0,1,.05-.16l-.09.25a3.81,3.81,0,0,1,.23-.45,1.75,1.75,0,0,0,.22-.76,4,4,0,0,1,.25-1.19l-.09.25c.11-.31.23-.6.35-.9a1,1,0,0,0,.11-.74c-.06-.23-.18-.26-.29-.43l.12.22v.18a.63.63,0,0,0-.33-.64,1.7,1.7,0,0,0-1-.17,1.81,1.81,0,0,0-1.62,1.09Z"/><path class="cls-3" d="M14.24,155.22a.69.69,0,0,1,.13.11l-.08-.09a.7.7,0,0,1,.1.53l0-.12c-.07.3-.22.57-.29.88s-.12.63-.17.95l0-.12a2.47,2.47,0,0,1-.27.79c-.09.17.11.24.23.27a2.58,2.58,0,0,0,.92,0A5,5,0,0,0,16,158a1.32,1.32,0,0,0,.61-.42,4.78,4.78,0,0,0,.39-1.54l0,.12a3.18,3.18,0,0,1,.13-.51,5.44,5.44,0,0,0,.19-.52.75.75,0,0,0-.27-.91,1.4,1.4,0,0,0-.73-.06,4.42,4.42,0,0,0-1.13.26c-.14,0-1.28.52-.88.76Z"/><path class="cls-3" d="M12.75,162.43a2.46,2.46,0,0,0-.26,1.64c.09.51.89.62,1.29.57a2,2,0,0,0,1.53-.84,1.71,1.71,0,0,0,.18-1.21c-.14-.61-1-.62-1.5-.54s-1.37.44-1.41,1.06a24.1,24.1,0,0,0-.2,3.17,12.18,12.18,0,0,1,.11,1.31c0,.5-.1,1-.15,1.5-.14,1.36,2.8.9,2.92-.28.05-.5.12-1,.15-1.49a7.83,7.83,0,0,0-.11-1.53,4.46,4.46,0,0,1,0-.61l.06-.74c0-.54.07-1.07.12-1.6l-2.91.52,0,.11c0-.06,0-.06,0,0s.09-.14,0,.09l2.82-.28a.72.72,0,0,1,0-.33s0-.2,0-.14.07-.16.08-.17c.32-.6-.29-1-.85-1.07a2,2,0,0,0-1.89.85Z"/><path class="cls-3" d="M11.49,166.31q-.22,8.37.06,16.73c0,1,2.93.38,2.89-.78q-.27-8.14,0-16.29c0-1.23-2.88-.66-2.9.34Z"/><path class="cls-3" d="M12.5,169.37a6.78,6.78,0,0,1-.32,1.65,12.44,12.44,0,0,0-.11,1.82c0,1.28,0,2.56,0,3.83,0,2.61.05,5.21.15,7.82,0,.71.68,1,1.33.93s1.62-.46,1.6-1.16c-.1-2.71-.15-5.41-.15-8.12,0-1.32,0-2.65,0-4s.48-2.37.39-3.58c-.05-.71-1.25-.71-1.71-.59a1.38,1.38,0,0,0-1.19,1.37Z"/><path class="cls-3" d="M12.38,180a39.36,39.36,0,0,0,1.75,10.66l2.78-1a41.79,41.79,0,0,1-3-6.24l-2.89.78c1,2.67,2.09,5.34,3.33,7.93a7.5,7.5,0,0,1,.94,3.52,5.29,5.29,0,0,0,1.27,3.4c.66.9,3.07.22,2.78-1A20.36,20.36,0,0,0,17.79,194a12.6,12.6,0,0,1-.88-4l-2.57,1.21A7.27,7.27,0,0,1,16.15,195l2.9-.78c-.42-.85-.86-1.7-1.26-2.57a20.74,20.74,0,0,1-.74-2.59c-.49-1.71-1.32-3.38-1.37-5.18l-2.92.5a41.74,41.74,0,0,0,1.68,6.37c.52,1.26,3,.57,2.89-.77a10.43,10.43,0,0,0-.57-2.47l-2.9.77c.42,1,1.23,2.32,1.19,3.45-.06,1.46,2.88,1,2.93-.24a10,10,0,0,0-1.22-4c-.51-1.24-3.36-.47-2.9.77a10.09,10.09,0,0,1,.58,2.47l2.89-.77a42,42,0,0,1-1.67-6.37c-.28-1.19-2.95-.62-2.91.51a20.37,20.37,0,0,0,1.31,5.41c.27.86.37,1.78.71,2.62s.92,1.91,1.38,2.85c.57,1.15,3.27.57,2.9-.78a8.84,8.84,0,0,0-2.47-4.59c-.81-.71-2.68.11-2.57,1.21a13.24,13.24,0,0,0,.86,4c.28.62.66,1.2.92,1.83a14.54,14.54,0,0,1,.62,2.14l2.78-1a4.82,4.82,0,0,1-.92-1.58,9.49,9.49,0,0,1-.09-1.85A9.38,9.38,0,0,0,17.07,191c-1.18-2.49-2.18-5.06-3.19-7.62-.49-1.26-3.37-.44-2.89.78a45.27,45.27,0,0,0,3.26,6.72c.57,1,3.14.16,2.78-1a37.79,37.79,0,0,1-1.72-10.12c-.05-1.48-3-1-2.93.24Z"/><path class="cls-3" d="M16.55,195.07a51.14,51.14,0,0,0,5.15,8.77,35.15,35.15,0,0,0,6.47,7.5c.59.5,3.15-.63,2.74-1a34.3,34.3,0,0,1-6.47-7.54,49.55,49.55,0,0,1-5-8.53c-.28-.67-3.12.26-2.9.78Z"/><path class="cls-3" d="M15.58,198.68c1.75,1.15,2.75,3,4,4.69a39.8,39.8,0,0,0,4.43,5.1,105.55,105.55,0,0,0,10.41,8.69c1,.76,3.55-.66,2.24-1.65a98.31,98.31,0,0,1-10.45-8.76,40,40,0,0,1-4.26-5c-1.2-1.72-2.29-3.51-4.08-4.69-1-.68-3.6.76-2.24,1.65Z"/><path class="cls-3" d="M23.34,205.75a16.53,16.53,0,0,1,4.13,4.37,19.67,19.67,0,0,0,2.09,2.38,35.68,35.68,0,0,0,2.77,2.28c.46.35,1.4.07,1.88-.12.19-.08,1.28-.56.84-.91a33.41,33.41,0,0,1-2.77-2.27,19.67,19.67,0,0,1-2.09-2.38,16.38,16.38,0,0,0-4.13-4.37,2.38,2.38,0,0,0-1.88.12c-.16.06-1.32.61-.84.9Z"/><path class="cls-3" d="M29.63,210.62c-.85.91,0,1.46.72,2.18s1.64,1.58,2.5,2.32a51.11,51.11,0,0,0,5.54,4.06,86.25,86.25,0,0,0,12.53,6.46,2.37,2.37,0,0,0,2-.27c.36-.23.9-.84.25-1.12a93.31,93.31,0,0,1-11.3-5.69A50.32,50.32,0,0,1,36.79,215c-.84-.67-1.66-1.36-2.46-2.09l-1-1c-.32-.31-1.08-.87-1.2-1.32l-.29.62.14-.15c1.15-1.23-1.67-1.16-2.32-.46Z"/><path class="cls-3" d="M32.14,216.79a129.92,129.92,0,0,0,14.63,8.59c4.84,2.42,9.88,4.92,15.31,5.65,1.39.19,3-1.79,1-2.05-5.25-.71-10.23-3.28-14.91-5.66a130.29,130.29,0,0,1-13.8-8.17c-1-.69-3.58.73-2.24,1.64Z"/><path class="cls-3" d="M31.72,214.42a153.35,153.35,0,0,0,23.41,12.85c4.18,1.84,8.43,3.73,12.75,5.2s8.75,1.79,13.21,2a2.94,2.94,0,0,0,2-.55c.37-.34.42-.82-.23-.86-4.44-.25-8.9-.56-13.12-2.06s-8.27-3.27-12.32-5a150.67,150.67,0,0,1-23-12.64,2.19,2.19,0,0,0-1.9.05c-.2.08-1.32.68-.81,1Z"/><path class="cls-3" d="M56.44,228.06c2.13.53,4.25,1.13,6.37,1.73A43,43,0,0,1,69,232c1.21.55,3.35-1.19,1.68-1.95a43.56,43.56,0,0,0-6.15-2.16c-2.12-.6-4.23-1.21-6.37-1.73a2,2,0,0,0-2,.55.84.84,0,0,0,.38,1.4Z"/><path class="cls-3" d="M61.21,230.45a21.33,21.33,0,0,0,6,2.26c2.52.62,5,1.21,7.56,1.81l14.91,3.56a49.93,49.93,0,0,0,7.06,1.34c2.23.2,4.38.66,6.59,1,5.12.77,10.31.22,15.46.4a3.16,3.16,0,0,0,2.05-.55c.37-.33.46-.71-.19-.73-5-.17-10,.35-15-.33-2.22-.3-4.39-.83-6.63-1a47.13,47.13,0,0,1-7-1.29l-14.44-3.45-7.22-1.72a22.53,22.53,0,0,1-6.49-2.3,2.42,2.42,0,0,0-1.88.12c-.16.06-1.32.62-.84.91Z"/><path class="cls-3" d="M68.13,233.21l9.18.93a3.74,3.74,0,0,0,1.77-.41c.1,0,.93-.5.54-.66a17.16,17.16,0,0,0-9.14-.93c-.25,0-2.08.51-1.64,1,1,1.15,2.57,1.46,4,1.8,2,.46,4,.86,6,1.19,4,.66,8,1,12,1.38,8.31.79,16.61,1.61,24.91,2.36,4.62.42,9.24.79,13.87,1a3.43,3.43,0,0,0,2-.55c.4-.32.45-.57-.16-.61-10.22-.53-20.41-1.64-30.6-2.6-5.19-.5-10.41-.89-15.59-1.52q-3.73-.47-7.44-1.21c-2-.42-4.8-.61-6.26-2.24l-1.65,1a13.27,13.27,0,0,1,7,.88L79.2,233,70,232.05a3.36,3.36,0,0,0-2,.55c-.42.33-.43.54.16.61Z"/><path class="cls-3" d="M68.77,231.49a51.2,51.2,0,0,0,8.54,2.19c3,.64,6.06,1.27,9.11,1.84,6.12,1.15,12.3,2,18.45,3a2.77,2.77,0,0,0,2-.55c.4-.38.41-.71-.22-.81-6-.93-12-1.79-18-2.89-2.88-.53-5.76-1.12-8.63-1.73a52.07,52.07,0,0,1-9-2.28,2.72,2.72,0,0,0-2,.33c-.33.18-.93.67-.31.92Z"/><path class="cls-3" d="M84.38,236.31a49.9,49.9,0,0,0,8.46.63,2.17,2.17,0,0,0,1.9-.83c.33-.58-.28-1-.82-1a48.36,48.36,0,0,1-7.81-.53,2.36,2.36,0,0,0-2,.55c-.4.4-.34,1.06.32,1.16Z"/><path class="cls-3" d="M100.55,238.71c5.44,1,11.15.86,16.67,1.06l17.16.62a3.68,3.68,0,0,0,2.05-.55c.41-.3.46-.51-.14-.53l-16.66-.61c-5.52-.2-11.24,0-16.68-1a3.72,3.72,0,0,0-2,.39c-.22.11-1,.54-.38.66Z"/><path class="cls-3" d="M102.9,237.63a8.77,8.77,0,0,0,4.26,1.06,4.34,4.34,0,0,0,1.55-.28c.37-.14.93-.37,1.07-.78.23-.71-1-1-1.5-1.08s-2.84.4-2.28,1.17,2,.72,3,.72h3.76a2.76,2.76,0,0,0,1.93-.73c.44-.51-.38-.6-.72-.6h-4.42a1,1,0,0,1-.8-.43l-2.28,1.18a.76.76,0,0,1,.21.08c.15.08.16.21.3.07l.47-.33c1.86-.85,1.49-.29,1-.32a3.55,3.55,0,0,1-.46,0,4.69,4.69,0,0,1-.75-.12,7,7,0,0,1-1.63-.61,2.33,2.33,0,0,0-1.88.1c-.15.05-1.34.66-.83.93Z"/><path class="cls-3" d="M113.62,239.09a135.48,135.48,0,0,1,17.68.65c5.73.65,11.43,1.32,17.17.5.33-.05,1.68-.34,1.69-.81s-.84-.37-1.17-.32c-5.75.82-11.56-.15-17.28-.76a135.33,135.33,0,0,0-16.85-.48c-.5,0-1.65.22-1.93.7s.26.53.69.52Z"/><path class="cls-3" d="M112.62,238.86,118,239a3.68,3.68,0,0,0,2-.55c.13-.09.39-.25.34-.45s-.38-.21-.52-.22l-5.39-.12a3.63,3.63,0,0,0-2,.54c-.12.1-.38.26-.33.45s.37.21.51.22Z"/><path class="cls-3" d="M114.79,240.41c5.51,1.23,11.17,1.15,16.79,1.08l17.37-.2a3.58,3.58,0,0,0,2.05-.55c.38-.29.48-.58-.15-.57l-16.88.2c-5.62.06-11.27.19-16.79-1a3.47,3.47,0,0,0-2,.39c-.24.11-1,.55-.37.69Z"/><path class="cls-3" d="M126.72,241.37q9.84.49,19.69.09a2.88,2.88,0,0,0,1.94-.7c.35-.5-.32-.53-.7-.51q-9.53.38-19.06-.1a3.45,3.45,0,0,0-2,.55c-.43.31-.42.64.18.67Z"/><path class="cls-3" d="M127.5,241.83c12.19,2.16,24.1-2.3,36.24-2.58.5,0,1.66-.22,1.94-.7s-.26-.5-.69-.49c-11.72.28-23.37,4.72-35.11,2.63a3.41,3.41,0,0,0-2,.37c-.22.11-1,.65-.35.77Z"/><path class="cls-3" d="M133.37,240.8c10.77.53,21.52-1.62,32.28-.55a2.7,2.7,0,0,0,2-.55c.4-.36.39-.89-.26-1-11-1.09-21.93,1-32.92.49-.56,0-1.64.22-1.92.78s.25.76.77.79Z"/><path class="cls-3" d="M143.73,242.09A31.07,31.07,0,0,0,154.78,241c3.73-.9,7.51-2,11.38-1.46l1.13-1.42a82.7,82.7,0,0,1-13.95,1.52c-.42,0-2.58.52-1.94,1.28s2,.74,3,.75a36,36,0,0,0,4.63-.32c3.08-.38,6.13-1,9.22-1.45a105.92,105.92,0,0,1,19.09-.86c.54,0,1.64-.22,1.92-.76s-.26-.69-.75-.71a110.37,110.37,0,0,0-17.43.62c-2.86.33-5.69.82-8.54,1.29-1.41.24-2.82.46-4.25.59-1,.09-3.52.59-4.21-.23l-1.94,1.27a86.06,86.06,0,0,0,14.67-1.58c.44-.09,1.32-.26,1.56-.73s0-.63-.43-.69a29.89,29.89,0,0,0-11,1c-3.73.89-7.51,2-11.39,1.54a2.78,2.78,0,0,0-2,.54c-.4.38-.39.81.24.89Z"/><path class="cls-3" d="M137.22,240.2l61.22-3.37c.5,0,1.57-.38,1.64-1s-.83-.66-1.25-.63l-61.22,3.36c-.5,0-1.56.39-1.64,1s.83.66,1.25.64Z"/><path class="cls-3" d="M177,236.78A120.73,120.73,0,0,1,192,233.93c4.67-.54,9.37-.55,13.75-2.46.4-.18.84-.52.34-.8s-1.58.16-2,.36a21.53,21.53,0,0,1-6.84,1.29c-2.25.19-4.49.43-6.72.74a132.29,132.29,0,0,0-13.81,2.76c-.29.07-1.45.4-1.32.87s1.34.15,1.57.09Z"/><path class="cls-3" d="M160.78,241.92a22,22,0,0,0,5.06-.33c1-.19,3.13-.4,3.71-1.39s-1.06-1.16-1.71-1.1a14.57,14.57,0,0,0-4.58,1.36c-.8.36-.68.93.22.82a47.26,47.26,0,0,0,11.07-2.7l-1.82-.27a4.35,4.35,0,0,1-2.18,1c-.43.12-2.11,1-.81,1.09,3.31.23,6.37-1,9.46-2.05a86.2,86.2,0,0,1,9.84-2.56,90.66,90.66,0,0,1,20.46-1.69,3.29,3.29,0,0,0,2.05-.55c.37-.32.46-.66-.18-.68a97.34,97.34,0,0,0-29.68,3.69q-2.43.71-4.83,1.52a13.25,13.25,0,0,1-5.25,1.1l-.81,1.09a9.75,9.75,0,0,0,4.56-2.19c.74-.73-1.62-.33-1.82-.26a37.25,37.25,0,0,1-8.82,2.2l.23.83a6.38,6.38,0,0,1,1.61-.55c.89-.15.35,0-.2.12a15.46,15.46,0,0,1-3.72.24,3.19,3.19,0,0,0-2,.55c-.39.32-.46.64.18.67Z"/><path class="cls-3" d="M179.16,237.17c7,.08,13.78-2.73,20.57-4.16a90.16,90.16,0,0,1,21.85-2c.6,0,1.62-.2,1.91-.82s-.24-.93-.82-1A94.62,94.62,0,0,0,201.18,231c-3.44.67-6.85,1.5-10.24,2.43s-7,2-10.68,1.94c-.61,0-1.62.19-1.91.81s.24.95.81.95Z"/><path class="cls-3" d="M191.28,237.22c7.25,0,13.87-3.08,20.6-5.35a89.13,89.13,0,0,1,21.94-4.24c1.67-.12,2.2-2.37.23-2.22a92.89,92.89,0,0,0-21.86,4.08c-6.78,2.21-13.41,5.49-20.68,5.51-1.69,0-2.19,2.23-.23,2.22Z"/><path class="cls-3" d="M188.43,234.77l0,1.78c0,1.22,1.71,1.17,2.44.59a8.46,8.46,0,0,1,3.08-1.33l3.77-1.12,7.06-2.11c4.7-1.4,9.39-2.83,14.1-4.19,9.46-2.73,19.1-3.3,28.88-3.66,1.67-.06,2.21-2.26.24-2.19-10.23.38-20.26,1.06-30.13,3.93-5,1.46-10,3-15,4.48l-7.54,2.24c-2.17.65-4.54,1.12-6.35,2.56l2.44.59,0-1.77c0-1.55-3-1.14-2.94.2Z"/><path class="cls-3" d="M208.41,233.52q4.74-1.59,9.58-2.92l-1.05-1a7.55,7.55,0,0,1-3.17.38c-.41,0-2.92.81-1.75,1.4,2.15,1.08,4.7.46,6.76-.53,2.43-1.15,4.54-2.45,7.24-2.91l-1.12-.7a5.48,5.48,0,0,1-3.13,1.69l.65,1.07c6-3,12.4-6.24,19.32-5.3a2.78,2.78,0,0,0,2-.55c.4-.38.39-.82-.24-.9-8.2-1.11-15.77,2.46-22.88,6-1.14.58-.24,1.21.66,1.08a10.77,10.77,0,0,0,6.25-3.16c.64-.66-.84-.75-1.12-.7a22.61,22.61,0,0,0-6.07,1.87c-1.87.9-3.9,2.75-6,1.69l-1.74,1.4a13.68,13.68,0,0,0,6.09-1.16c.35-.17.71-.52.47-.9s-1.21-.18-1.52-.09q-5.22,1.44-10.34,3.17c-.42.14-1.12.56-.8,1.06s1.54.08,1.9,0Z"/><path class="cls-3" d="M230.92,226.88a52.17,52.17,0,0,0,9.1-3c.39-.16,1.2-.7.77-1.2s-1.43-.24-1.92,0a46.22,46.22,0,0,1-8.36,2.75c-.44.09-1.4.55-1.24,1.14s1.23.45,1.65.36Z"/><path class="cls-3" d="M230.16,225.26A108.85,108.85,0,0,1,258,220.68c.5,0,1.66-.22,1.94-.69s-.26-.5-.69-.48a114.25,114.25,0,0,0-29.3,4.85c-.27.08-1.45.39-1.33.84s1.36.13,1.57.06Z"/><path class="cls-3" d="M237.62,223.09a90.89,90.89,0,0,0,10.74-3.84,18.9,18.9,0,0,0,8-6.15l-2.86.5a21.87,21.87,0,0,1-6.05,6.62l2.43,0,3.53-3.6c.41-.42-.24-.5-.53-.51a3.45,3.45,0,0,0-1.9.55l-8.21,6,2.42,0q2.09-1.8,4.32-3.4c.38-.27.44-.52,0-.64a3.14,3.14,0,0,0-1.9.38l-7.21,3.84,2,.26a13.32,13.32,0,0,1,4.09-1.36c1.5-.34,3-.75,4.43-1.23,3-1,5.8-2.22,8.64-3.47l-1.95-.27c-4.82,2.81-10.39,4-15.45,6.28-.38.18-.86.51-.35.78s1.58-.16,2-.36c5.27-2.38,11-3.65,16-6.58.43-.25.41-.54-.05-.65a3.31,3.31,0,0,0-1.9.38,72,72,0,0,1-9.08,3.54c-2.93.84-6,1.21-8.63,2.83-.42.26-.41.53.05.65a3.3,3.3,0,0,0,1.9-.38l7.22-3.84-2-.27c-1.62,1.16-3.2,2.4-4.71,3.7-.46.39.28.5.53.51a3.39,3.39,0,0,0,1.89-.55l8.22-6.05-2.43,0-3.53,3.61c-.4.41.24.49.54.5a3.42,3.42,0,0,0,1.89-.55,23.91,23.91,0,0,0,6.68-7.23c.28-.47-1-.33-1.16-.31a2.63,2.63,0,0,0-1.7.81,16.49,16.49,0,0,1-7.15,5.39,81.23,81.23,0,0,1-8.95,3.16c-.28.09-1.45.39-1.33.86s1.35.15,1.58.08Z"/><path class="cls-3" d="M261,219.32l-18.5,4.92c-.38.11-1.42.48-1.27,1s1.27.36,1.63.28a90.28,90.28,0,0,0,19-6.54c.35-.17,1.08-.51.84-1s-1.22-.29-1.57-.2c-3,.79-5.91,1.64-8.82,2.59s-5.69,2.28-8.62,2.8l0,1.4A115.41,115.41,0,0,0,262,218.15c.31-.15,1-.46.89-.93s-.92-.4-1.23-.35a110.57,110.57,0,0,0-18,5.25c-.86.31-1.28,1.34,0,1.3a25.83,25.83,0,0,0,10.53-3.18c1.78-.89,3.53-1.81,5.34-2.65.95-.44,1.91-.87,2.86-1.29a6.22,6.22,0,0,1,2.86-.89l-.31-1.14c-2.83,1.55-5.92,2.57-8.83,4a49,49,0,0,0-7.95,5.43c-.65.49-1.38.86-2,1.34s-.78.61,0,.48c.39-.06.79-.14,1.18-.22a33.86,33.86,0,0,0,4.61-1.37c3.11-1.12,6.1-2.58,9.28-3.51l-.73-1.2q-7.84,3.62-16,6.5l1.44.9a46.92,46.92,0,0,1,12.75-5c.39-.1,1.42-.49,1.27-1.05s-1.27-.36-1.62-.28a52.12,52.12,0,0,0-14.17,5.63c-.39.22-.77.6-.37,1s1.39.07,1.81-.08q8.15-2.87,16-6.49c.35-.16,1.07-.51.84-1s-1.23-.3-1.58-.19c-3.89,1.14-7.5,3-11.36,4.22a22.48,22.48,0,0,1-3.12.75,4.62,4.62,0,0,0-2.24.74c-.49.38-.72.94-.26,1.45a2.33,2.33,0,0,0,2.16.31c1.79-.4,3.47-1.75,4.89-2.85a46.12,46.12,0,0,1,4.85-3.6c3.48-2,7.4-3.14,10.93-5.07.88-.49.57-1.09-.3-1.15-2-.13-3.77.75-5.54,1.54s-3.74,1.69-5.57,2.62c-3.3,1.66-6.69,3.71-10.48,3.85l0,1.3a101.92,101.92,0,0,1,16.5-4.83l-.34-1.27a109.59,109.59,0,0,1-17.7,6.21c-.37.11-1.32.43-1.27,1s.86.51,1.23.45c3.09-.54,6-1.85,9-2.82s6.14-1.9,9.25-2.72l-.73-1.2a85.83,85.83,0,0,1-18.23,6.28l.36,1.33,18.49-4.93c.39-.1,1.43-.48,1.27-1s-1.27-.36-1.62-.27Z"/><path class="cls-3" d="M255.3,207.6c-1,1.94-2.71,3.37-3.9,5.19-.87,1.34-1.37,3.69-2.86,4.5l2,.89a50.17,50.17,0,0,1,4.82-7.86c.89-1.14,2.46-1.52,3.74-2a15.75,15.75,0,0,1,4.47-1.56l-1.05-1.33c-.59.8-1.57,1.29-2.24,2.05a14.57,14.57,0,0,0-1.66,2.39,26.32,26.32,0,0,1-3.2,5.16l2.64,0c-.21-1.08.66-2.33,1.1-3.29l1.4-3c.69-1.49-2.18-1.15-2.75-.24l-2.66,4.29-1.26,2-.64,1c-.07.12-.69,1-.43.74l1.1-.39-.24,0L255,217a22.22,22.22,0,0,1,3.51-7.3l-2.75-.24-5.09,9.52c-.74,1.38,2,1.14,2.57.48,1.91-2.25,4.13-4.45,7-5.42l-1.57-.28,1.63,1.6,1.09-1.51c-2.59.9-5.21,1.75-7.84,2.53-.51.15-1.39.61-1.21,1.28s1.19.66,1.69.52a12.94,12.94,0,0,0,6-3.82l-1,.54.22-.08-1.37-.11a7.46,7.46,0,0,0,5.19.83,15.23,15.23,0,0,0,5.51-2.94,39.37,39.37,0,0,1,11.86-5.92c.74-.22,2-1.44.61-1.81l-.32-.09a2.15,2.15,0,0,0-2.05.55.73.73,0,0,0,.34,1.27l.33.09.61-1.81A47.78,47.78,0,0,0,265.8,212a7.48,7.48,0,0,1-3.38,1.67c-1.21.14-2-.79-3.08-.8s-1.8.83-2.59,1.59a7.39,7.39,0,0,1-3.24,1.84l.48,1.8q4-1.17,7.84-2.53c.41-.14,1.76-.85,1.09-1.51l-1.62-1.61a1.61,1.61,0,0,0-1.58-.29,20.48,20.48,0,0,0-8.89,6.49l2.57.48,5.09-9.51c.34-.63-.3-1-.85-1.1a2.1,2.1,0,0,0-1.9.86,23.83,23.83,0,0,0-3.68,7.81c-.18.67.87.91,1.31.83,2-.33,2.65-2.14,3.63-3.72l3.55-5.72-2.75-.24-1.8,3.92a5.55,5.55,0,0,0-.84,3.44c.21,1.1,2.17.48,2.64,0a23.3,23.3,0,0,0,3.21-5,13.35,13.35,0,0,1,1.54-2.39c.7-.83,1.71-1.32,2.35-2.19s-.15-1.41-1-1.33a17.87,17.87,0,0,0-5.34,1.69c-1.58.66-3.44,1.18-4.77,2.3a17.7,17.7,0,0,0-3.05,4.11c-1,1.64-2,3.34-2.91,5.07-.6,1.15,1.37,1.22,2,.88,2-1.11,2.79-2.91,3.83-4.86,1.19-2.25,3.26-3.85,4.43-6.12.72-1.38-2.21-1.27-2.74-.24Z"/><path class="cls-3" d="M281.15,205.42a3.35,3.35,0,0,1,.54-1.34l-2.86.49q-2.64,4.32-5.68,8.38c-.38.5.33.54.7.52a3.3,3.3,0,0,0,1.93-.7,20.69,20.69,0,0,0,5-6.46l-2.88.63c.36.58-.85,1.78-1.18,2.23-.56.77-1.13,1.53-1.71,2.29-1.13,1.48-2.28,2.93-3.48,4.35-2,2.36-4.24,4.78-7.24,5.78-.29.1-1.19.46-.86.87s1.55,0,1.88-.14c3.54-1.17,6.29-3.67,8.67-6.47,1.34-1.57,2.62-3.2,3.87-4.84.62-.82,1.23-1.64,1.83-2.47.4-.55,1.57-1.64,1.12-2.38s-2.58,0-2.88.64a19.69,19.69,0,0,1-4.76,6.15l2.63-.18q3.17-4.2,5.91-8.69c.29-.47-1-.35-1.17-.33a2.55,2.55,0,0,0-1.69.82,3.33,3.33,0,0,0-.54,1.34c-.13.74,2.74.25,2.86-.49Z"/><path class="cls-3" d="M252.76,225.31c5.89-1.9,11.76-3.84,17.21-6.82l-1.84-1c-1.33,1-2.66,1.91-4,2.8-1.14.73-2.71,2-4.12,2l0,1.58a30,30,0,0,0,10-5.89,36.34,36.34,0,0,0,6.93-9.22l-2.82.08c-.13.74-2.29,1.65-2.91,2-1.09.6-2.2,1.15-3.31,1.71-2,1-4.27,1.94-5.88,3.53-.6.59-.09,1.19.64,1.2,2.89,0,5.84,0,8.47-1.37l-1.19-1.37-5.88,3.12a34.67,34.67,0,0,1-5.77,2.91l1.4,1.12a94.3,94.3,0,0,1,10-7.19l-1.84-1c-3.11,2-6.57,3.48-9.67,5.53-.8.53-.6,1.37.38,1.41,2.55.11,4.95-.11,7.06-1.7a24.55,24.55,0,0,0,2.74-2.46q.66-.69,1.29-1.41c.16-.19.31-.38.47-.56a3.18,3.18,0,0,1,.3-.33c.28-.24.1-.19-.54.16l.74-1.28c-3.33,1.52-5.92,4-8.43,6.64-1.1,1.15,1.08,1.32,1.78,1a14,14,0,0,0,4.56-3.36c1.16-1.31-1.64-1.42-2.36-.61a10.29,10.29,0,0,1-3.4,2.6l1.78,1c2.17-2.24,4.38-4.57,7.26-5.88.42-.19,1.18-.74.74-1.27a2.6,2.6,0,0,0-2.78-.59A6,6,0,0,0,267,214.5a26.47,26.47,0,0,1-3,3c-1.36,1.12-2.65,1.16-4.35,1.09L260,220c3.1-2.05,6.56-3.49,9.67-5.53.46-.31.78-.89.22-1.26a2.15,2.15,0,0,0-2.06.24,101,101,0,0,0-10.54,7.6c-1.07.88.75,1.32,1.4,1.12a35.08,35.08,0,0,0,6.11-2.95l6.29-3.34c.43-.22,1.16-.71.74-1.27s-1.47-.33-1.93-.1c-1.94,1-4.07,1-6.19.94l.63,1.2a13.42,13.42,0,0,1,3.25-2c1.21-.63,2.44-1.22,3.65-1.85s2.27-1.2,3.36-1.88c.93-.58,2.19-1.21,2.39-2.39s-2.44-.62-2.81.08A34.73,34.73,0,0,1,268,217a26.07,26.07,0,0,1-9.12,5.42c-.93.36-1.21,1.58.05,1.59a10.84,10.84,0,0,0,5.59-1.86c1.91-1.11,3.71-2.4,5.5-3.69.45-.32.8-.87.22-1.26s-1.51-.06-2.06.24c-5,2.72-10.42,4.47-15.81,6.2-.46.15-1.4.56-1.23,1.21s1.23.57,1.67.43Z"/><path class="cls-3" d="M272.18,207.8a7.74,7.74,0,0,1-.53,1l.17-.27a7.78,7.78,0,0,1-1.2,1.43l.25-.24a7.47,7.47,0,0,1-1.22.94,1.22,1.22,0,0,0-.51.78.82.82,0,0,0,.36.74,1.64,1.64,0,0,0,1,.23l.39-.07a2,2,0,0,0,.7-.33,9.07,9.07,0,0,0,3.38-3.85.81.81,0,0,0-.06-.81,1.23,1.23,0,0,0-.83-.43,1.92,1.92,0,0,0-1.89.9Z"/><path class="cls-3" d="M287.75,207.52q12.92-5.64,25.47-12.08t24.45-14a292.64,292.64,0,0,0,44.69-34.16c3.42-3.21,6.76-6.51,10-9.92s6.36-6.91,9.34-10.52,5.85-7.33,8.5-11.18c1.33-1.92,2.62-3.88,3.8-5.89.6-1,1.06-2,1.59-3.09s1.05-2.09,1.51-3.16a84.47,84.47,0,0,0,7.68-26.76,53.15,53.15,0,0,0-.4-13.86,45.85,45.85,0,0,0-4.18-13.17,51.79,51.79,0,0,0-7.7-11.49,67.66,67.66,0,0,0-10.26-9.38A103.94,103.94,0,0,0,377.69,15.6,155.93,155.93,0,0,0,350.8,7.86c-2.3-.45-4.57-.82-6.9-1.13l-7-1c-2.33-.34-4.66-.58-7-.87s-4.65-.58-7-.79c-18.64-2-37.46-2.54-56.05-.46s-36.83,6.71-54.81,12l-.37.11-.43-.11a24.68,24.68,0,0,0-4.24-.73,30.65,30.65,0,0,0-4.39-.09,26.6,26.6,0,0,0-8.48,1.84,23.58,23.58,0,0,0-7.26,4.63,30.28,30.28,0,0,0-3,3.21,11.15,11.15,0,0,0-1.16,1.64,1.55,1.55,0,0,0-.13.29,1,1,0,0,0,0-.38,1.09,1.09,0,0,0-.44-.55.53.53,0,0,0-.2-.1l-.09,0c-.05,0,0,0,.15,0a9.62,9.62,0,0,0,1.86-.56c.68-.26,1.36-.55,2-.85,1.37-.61,2.74-1.27,4.12-1.94,2.75-1.33,5.48-2.73,8.39-3.95l1.12-.44.14-.06h0s-.11,0,.33-.08.42-.16,1.19.34c.7.8.49,1.13.53,1.16a2.1,2.1,0,0,1,0,.41,1.43,1.43,0,0,1-.08.22,3.3,3.3,0,0,1-.25.47l-.36.53c-.46.66-.91,1.28-1.37,1.9L197,26.2c-.44.61-.89,1.24-1.24,1.8l-.1.18s0,0,0,0l0-.07a1.15,1.15,0,0,0,.05-.58,1.58,1.58,0,0,0-.22-.61,1.63,1.63,0,0,0-.64-.55,1.43,1.43,0,0,0-.66-.12h.5l1.1-.08c.72-.06,1.44-.15,2.13-.27.34-.07.67-.14,1-.23l.43-.14.17-.07.05,0-.07,0,.62-.27a18.73,18.73,0,0,0,3.24-1,15.5,15.5,0,0,0,2.94-1.63,11.21,11.21,0,0,0,1.2-1.06l.59-.66a5.15,5.15,0,0,1,1-.85,11.88,11.88,0,0,1,4-1.49l-.27.09a122.2,122.2,0,0,1,15-5.26q7.59-2.18,15.31-3.75a237.37,237.37,0,0,1,31.18-4.21c5.23-.38,10.47-.53,15.71-.62s10.48,0,15.71.3a305.46,305.46,0,0,1,31.25,3.06c2.59.39,5.16.84,7.74,1.26s5.18.95,7.74,1.54q7.67,1.78,15.15,4.26A126.24,126.24,0,0,1,396,28.38a72,72,0,0,1,12.3,9.87A49,49,0,0,1,417.49,51c.15.29.3.59.43.89l.11.23,0,.05.05.13c0,.07,0,0-.13-.15a2.34,2.34,0,0,1,.44.47,9.61,9.61,0,0,1,.9,1.86c.48,1.24.86,2.49,1.23,3.75.72,2.52,1.32,5.06,1.87,7.62s1,5.12,1.43,7.7c.19,1.3.36,2.59.47,3.9.05.65.09,1.31.09,2a8.21,8.21,0,0,1,0,1,2,2,0,0,1-.32,1l-.23-.2a1.8,1.8,0,0,0,.23-.84,7.7,7.7,0,0,0,0-1c0-.64-.07-1.29-.14-1.93-.13-1.29-.33-2.58-.55-3.86-.44-2.56-1-5.11-1.58-7.64s-1.26-5-2-7.53c-.39-1.24-.8-2.47-1.28-3.65a9,9,0,0,0-.84-1.64,1.08,1.08,0,0,0-.22-.24.64.64,0,0,1-.24-.37s0,0,0,0l0-.05-.11-.22c-.14-.29-.28-.57-.44-.86a47.91,47.91,0,0,0-9.27-12.28,72.06,72.06,0,0,0-12.21-9.48,123.9,123.9,0,0,0-28.28-12.62c-4.94-1.56-10-2.89-15-4-2.53-.55-5.06-1.06-7.61-1.44s-5.14-.82-7.72-1.19a301.1,301.1,0,0,0-31-2.77c-5.18-.22-10.37-.22-15.56-.16s-10.37.32-15.54.74a244.84,244.84,0,0,0-30.77,4.27q-7.6,1.57-15.06,3.73A125.77,125.77,0,0,0,214,21.38l-.17.07-.1,0a9.53,9.53,0,0,0-3,1,2.3,2.3,0,0,0-.43.37l-.66.72a13.15,13.15,0,0,1-1.6,1.4,17.93,17.93,0,0,1-3.57,2,21.81,21.81,0,0,1-3.87,1.21l.62-.27a2.61,2.61,0,0,1-.32.19l-.21.1-.36.15c-.23.09-.45.15-.66.21-.44.12-.85.21-1.26.28-.83.15-1.63.24-2.43.31l-1.19.07-.3,0h-.24a2,2,0,0,1-.7-.13,1.56,1.56,0,0,1-.66-.58,1.54,1.54,0,0,1-.23-.63,1.42,1.42,0,0,1,.07-.73,1,1,0,0,1,.08-.2l.11-.24.19-.33c.46-.74.91-1.35,1.36-2l2.74-3.71,1.32-1.83.28-.42s.08-.15,0,0a1,1,0,0,0-.05.16,1.4,1.4,0,0,0,0,.36s-.17.34.52,1.13c.77.49.76.32,1.17.34s.27-.07.29-.07h0l-.12.05-1,.4c-2.74,1.15-5.48,2.54-8.24,3.87-1.39.67-2.78,1.34-4.21,2-.71.31-1.44.62-2.19.91a12.62,12.62,0,0,1-2.54.73,3.67,3.67,0,0,1-1,0l-.37-.09a2.13,2.13,0,0,1-.46-.22,1.88,1.88,0,0,1-.78-1,2.35,2.35,0,0,1,0-1.5,5.22,5.22,0,0,1,.33-.77,14.44,14.44,0,0,1,1.48-2.11,32.79,32.79,0,0,1,3.28-3.51A26.75,26.75,0,0,1,193.1,14a28.81,28.81,0,0,1,9.41-2,33.29,33.29,0,0,1,4.79.12,28.45,28.45,0,0,1,4.79.87h-.79c18.08-5.21,36.48-9.86,55.32-11.78s37.83-1.34,56.55.74c2.35.22,4.68.54,7,.82s4.68.56,7,.91l7,1c2.33.31,4.7.71,7,1.17a159.18,159.18,0,0,1,27.21,8,106.48,106.48,0,0,1,24.89,13.62,69.47,69.47,0,0,1,10.47,9.67,54.13,54.13,0,0,1,7.9,11.9,47.58,47.58,0,0,1,4.25,13.64,54.07,54.07,0,0,1,.35,14.26,85.43,85.43,0,0,1-8,27.17c-.47,1.08-1,2.14-1.54,3.19s-1,2.15-1.66,3.16c-1.22,2-2.52,4-3.88,5.95-2.7,3.87-5.62,7.59-8.64,11.21s-6.18,7.12-9.45,10.52-6.63,6.7-10.08,9.9a293.07,293.07,0,0,1-45,34q-12,7.42-24.57,13.87c-8.39,4.27-16.93,8.22-25.57,11.93Z"/><path class="cls-3" d="M424.13,75.2a12.16,12.16,0,0,0-.06,1.91c0,.61.1,1.22.16,1.83a.51.51,0,0,0,.5.5.5.5,0,0,0,.5-.5c-.06-.61-.14-1.22-.16-1.83a12.16,12.16,0,0,1,.06-1.91.5.5,0,0,0-.5-.5.51.51,0,0,0-.5.5Z"/><path class="cls-3" d="M420.17,55.05c-.55,2,.77,3.71,1.22,5.53s.76,3.88,1.13,5.81a1.51,1.51,0,0,0,1.84,1,1.53,1.53,0,0,0,1.05-1.84c-.34-1.82-.64-3.65-1-5.45a14.12,14.12,0,0,0-.88-2.59,7.57,7.57,0,0,1-.38-1,1,1,0,0,1,0-.73,1.5,1.5,0,0,0-2.9-.79Z"/><path class="cls-3" d="M424.49,70.16a1.5,1.5,0,0,0,0-3,1.5,1.5,0,0,0,0,3Z"/><path class="cls-3" d="M186.17,23.12a24.84,24.84,0,0,0,10.52-3.39c1.41-.84.49-3.32-1.16-2.74a14.9,14.9,0,0,1-6.35.82l.4,3a24.46,24.46,0,0,0,5.57-1.91,46.35,46.35,0,0,1,5.17-2.61,15.9,15.9,0,0,1,10.73.49V13.84c-3.88.86-8.27,1.33-11.78,3.33a4.16,4.16,0,0,0-2.48,4.35,3.39,3.39,0,0,1-2.43,3.75l1.69,2.21c1.09-1.92,3.14-2.89,5.11-3.69a20.4,20.4,0,0,0,6.23-3.39c1.45-1.28-.68-3.4-2.12-2.12-1.89,1.68-4.42,2.34-6.68,3.37A10.88,10.88,0,0,0,193.46,26a1.52,1.52,0,0,0,1.7,2.21,6.41,6.41,0,0,0,3.89-3.06,6.31,6.31,0,0,0,.75-2.44c.07-.8-.34-1.87.27-2.46,1.32-1.3,3.85-1.71,5.58-2.1,2.06-.48,4.13-.92,6.2-1.38,1.57-.35,1.27-2.41,0-2.89a18.81,18.81,0,0,0-11.53-.74,25.7,25.7,0,0,0-5.48,2.53,21.87,21.87,0,0,1-6.06,2.23c-1.75.37-1.19,2.82.4,2.95a17,17,0,0,0,7.15-.93l-1.16-2.74a21.37,21.37,0,0,1-9,3c-1.91.17-1.93,3.17,0,3Z"/><path class="cls-3" d="M195,20.45a2.34,2.34,0,0,1,1,1.88l2.26-1.3a2.41,2.41,0,0,1-.91-1.13l-.15,1.15a76.58,76.58,0,0,1,4.52-6.19l-2.35-.31a1.23,1.23,0,0,1,.23,1,1.53,1.53,0,0,0,1.9,1.45c-.09,0-.2-.1-.06.06a1.34,1.34,0,0,1,.23.64,1.57,1.57,0,0,1-.45,1.17c-.9,1.09-2.17,1.8-3.09,2.87a1.53,1.53,0,0,0,1.06,2.57,11.63,11.63,0,0,0,8.11-3.06l-2.12-2.12c-1.92,2.25-4.64,3.34-7.35,4.36l1.16,2.74,3.36-1.68a13,13,0,0,0,3-1.62,2.45,2.45,0,0,0,.82-2.51c-.08-.3-.86-1.39-.55-1.31l-.89-2.2-2.85,5.83c-.6,1.24.71,3,2.06,2.05l6.78-4.55a1.5,1.5,0,0,0-1.51-2.59,10.8,10.8,0,0,0-4.75,5A1.5,1.5,0,0,0,207,24.21l3.63-5.06a1.5,1.5,0,0,0-.23-1.82,2.68,2.68,0,0,0-4.23.59,1.52,1.52,0,0,0,1.3,2.26c.26,0,.85.41.56.74l2.51.66c-.6-2.87,3.58-3.77,5.53-4.2l-1.46-2.51a24.7,24.7,0,0,1-5.37,3.36L211,20.59a22.13,22.13,0,0,1,11.83-5.7l-1.16-2.74a24.9,24.9,0,0,1-6.77,2.8l1.15,2.74a18.82,18.82,0,0,1,5.67-2.45c2-.61,4-1.18,6-1.73q6.25-1.69,12.61-3a204.5,204.5,0,0,1,25.72-3.58c1.9-.14,2-3,0-3h-7.4v3a507.68,507.68,0,0,1,60.91-2.31l-.4-2.94A13.64,13.64,0,0,1,313,2c-1.89-.36-2.69,2.53-.8,2.89A17,17,0,0,0,320,4.57a1.51,1.51,0,0,0-.4-2.95,507.68,507.68,0,0,0-60.91,2.31c-1.88.19-2,3,0,3h7.4v-3a211.7,211.7,0,0,0-26.52,3.69Q233,9,226.49,10.74c-4,1.09-8.52,1.95-11.91,4.36a1.5,1.5,0,0,0,1.15,2.74,27.64,27.64,0,0,0,7.5-3.1c1.55-.92.45-3-1.16-2.74a24.92,24.92,0,0,0-13.15,6.47c-1.32,1.23.35,3,1.82,2.35a28,28,0,0,0,6-3.83c1.24-1-.12-2.8-1.46-2.5-2.1.46-4.3,1-5.9,2.56a5.68,5.68,0,0,0-1.73,5.33,1.51,1.51,0,0,0,2.51.66c1.91-2.16.39-6.07-2.68-5.86l1.29,2.25a.4.4,0,0,1-.48,0L208,17.63l-3.63,5.06L207,24.21a8.15,8.15,0,0,1,3.67-4l-1.51-2.59-6.79,4.55,2.05,2.06,2.85-5.84a1.52,1.52,0,0,0-.9-2.2,3.14,3.14,0,0,0-3.82,3.8,5.66,5.66,0,0,0,.71,1.28c.12-.5,0-.66-.2-.47l-.36.19-1.05.52-4.2,2.1c-1.5.75-.45,3.34,1.15,2.74,3.17-1.2,6.42-2.49,8.67-5.13a1.5,1.5,0,0,0-2.12-2.12,8.51,8.51,0,0,1-6,2.18l1.06,2.56c1.61-1.89,4.3-3.06,4.41-5.87.08-2.29-1.57-4.31-4-3.9l1.89,1.45a3.85,3.85,0,0,0-.64-2.51,1.51,1.51,0,0,0-2.36-.3c-1.52,1.87-3,3.81-4.33,5.81-.69,1-1.09,1.67-.52,2.85a5.61,5.61,0,0,0,2,2.22A1.51,1.51,0,0,0,199,22.33a5.5,5.5,0,0,0-2.45-4.47c-1.57-1.13-3.07,1.47-1.52,2.59Z"/><path class="cls-3" d="M293.55,5.22a91.22,91.22,0,0,0,19,1.34c3.09,0,6.17-.17,9.25-.22,2.84,0,5.77,0,8.31,1.43L330.82,5l-4.88-.59v3a48.42,48.42,0,0,1,9.83.77c3.13.43,6.26.87,9.37,1.4A126.57,126.57,0,0,1,363.47,14c1.84.61,2.63-2.29.8-2.89a126.62,126.62,0,0,0-18.81-4.54c-3.19-.53-6.4-1-9.61-1.42a49.27,49.27,0,0,0-9.91-.78,1.5,1.5,0,0,0,0,3l4.88.59c1.53.18,2-2.11.76-2.8a16.75,16.75,0,0,0-8.14-1.85c-3.16,0-6.33.14-9.49.2a91.8,91.8,0,0,1-19.6-1.2c-1.89-.37-2.7,2.52-.8,2.89Z"/><path class="cls-3" d="M363.32,13.78c2.92,1.81,6.32,2.13,9.55,3.06A65.45,65.45,0,0,1,383,21.07c6.51,3.16,13.11,6.37,18.81,10.9,1.5,1.18,3.64-.92,2.13-2.12-5.81-4.61-12.38-8-19-11.17A81.57,81.57,0,0,0,375,14.35c-3.33-1.1-7.09-1.27-10.12-3.16-1.65-1-3.16,1.58-1.52,2.59Z"/><path class="cls-3" d="M360.56,12.68a43.54,43.54,0,0,0,8.4,4,1.52,1.52,0,0,0,1.7-2.2,10,10,0,0,0-4.78-3.81l-.8,2.89c3.46,1.24,6.87,2.6,10.22,4.11V15.11c-.17.12-.65.42-.8,0l-2.2,1.69q4.71,2.3,9.59,4.27c3.15,1.28,6.42,2.27,9.34,4a114.79,114.79,0,0,1,16.26,12.28c1.43,1.28,3.56-.83,2.12-2.12A122.91,122.91,0,0,0,393.12,22.8,52.05,52.05,0,0,0,384,18.75q-5.2-2.05-10.22-4.51c-1.05-.51-2.7.36-2.2,1.69a3.45,3.45,0,0,0,5.2,1.77c.79-.6,1.15-2.08,0-2.59-3.58-1.61-7.23-3.09-10.93-4.41-1.84-.66-2.56,2.19-.8,2.89a6.53,6.53,0,0,1,3,2.43l1.69-2.2a40.36,40.36,0,0,1-7.68-3.73c-1.65-1-3.16,1.57-1.52,2.59Z"/><path class="cls-3" d="M384.54,21.83q4.53,2.22,8.93,4.69c1.73,1,3-1.45,1.51-2.59a10.49,10.49,0,0,0-5.1-2c-1.59-.21-1.87,2.07-.76,2.8a66.36,66.36,0,0,0,9.65,5.19c2.84,1.23,5.89,2.3,7.94,4.75,1.24,1.49,3.35-.64,2.12-2.12-2.14-2.56-5.24-3.8-8.23-5.09a67,67,0,0,1-10-5.32l-.76,2.79a7.71,7.71,0,0,1,3.59,1.58L395,23.93q-4.39-2.47-8.92-4.69c-1.73-.84-3.25,1.75-1.52,2.59Z"/><path class="cls-3" d="M385,22.41a42.53,42.53,0,0,0,4,2.7,1.51,1.51,0,0,0,2.05-.54,1.53,1.53,0,0,0-.54-2.05,42,42,0,0,1-4-2.71,1.54,1.54,0,0,0-1.15-.15,1.56,1.56,0,0,0-.9.69,1.52,1.52,0,0,0-.15,1.16l.15.36a1.55,1.55,0,0,0,.54.54Z"/><path class="cls-3" d="M410.77,37a2,2,0,0,0-1.49-2.52,1.53,1.53,0,0,0-1.85,1.85,7.94,7.94,0,0,0,2.89,3.76,24.72,24.72,0,0,1,3.95,4,19.44,19.44,0,0,1,3.09,4.55c.31.77.45,1.61.75,2.39a6.07,6.07,0,0,0,.65,1.33c.16.24.58.71.58.84,0,1.93,3,1.94,3,0a4.54,4.54,0,0,0-1.06-2.47,9.24,9.24,0,0,1-.85-2.36,17,17,0,0,0-3.05-5.12,28.65,28.65,0,0,0-3.94-4.44c-1.08-.93-2.67-1.81-3.11-3.25l-1.85,1.84h0l-.54-.54h0V36l0,.18c-.4,1.89,2.49,2.69,2.89.8Z"/><path class="cls-3" d="M406.58,37.29a67.24,67.24,0,0,1,7.85,9c2.19,3.21,3.73,6.8,6.11,9.88a1.51,1.51,0,0,0,2.12,0,1.53,1.53,0,0,0,0-2.12c-2.35-3.05-3.8-6.69-6-9.83a77.69,77.69,0,0,0-7.93-9.07c-1.35-1.38-3.48.74-2.12,2.13Z"/><path class="cls-3" d="M418.35,53a14.71,14.71,0,0,0,1,3.49c.39,1.17.66,2.37,1,3.56l1.87,7.57c.46,1.88,3.36,1.08,2.89-.79l-1.8-7.3c-.29-1.16-.55-2.32-.9-3.45a15.31,15.31,0,0,1-1-3.08,1.54,1.54,0,0,0-1.5-1.5,1.5,1.5,0,0,0-1.5,1.5Z"/><path class="cls-3" d="M410.16,38.21a1.5,1.5,0,0,0,0-3,1.5,1.5,0,0,0,0,3Z"/><path class="cls-3" d="M398,30a1.5,1.5,0,0,0,0-3,1.5,1.5,0,0,0,0,3Z"/><path class="cls-3" d="M424.22,70.28a1.5,1.5,0,0,0,0-3,1.5,1.5,0,0,0,0,3Z"/><path class="cls-3" d="M424.64,71.54a1.5,1.5,0,0,0,0-3,1.5,1.5,0,0,0,0,3Z"/><path class="cls-3" d="M424.64,73.14a1.5,1.5,0,0,0,0-3,1.5,1.5,0,0,0,0,3Z"/><path class="cls-3" d="M425,74.67a1.5,1.5,0,0,0,0-3,1.5,1.5,0,0,0,0,3Z"/><path class="cls-3" d="M424.49,75.56a.75.75,0,0,0,0-1.5.75.75,0,0,0,0,1.5Z"/><path class="cls-3" d="M320.91,6.08c1.74.21,3.5.39,5.24.68a.5.5,0,0,0,.27-1c-1.83-.3-3.68-.49-5.51-.71a.5.5,0,0,0-.5.5.51.51,0,0,0,.5.5Z"/><path class="cls-3" d="M370.36,16.11a6.07,6.07,0,0,0,.73.52,6.21,6.21,0,0,0,.82.4.56.56,0,0,0,.38-.05.5.5,0,0,0,.23-.3.53.53,0,0,0,0-.39l-.08-.1a.54.54,0,0,0-.22-.13l-.06,0,.12.06a5.53,5.53,0,0,1-1.15-.68l.1.08-.11-.09a.6.6,0,0,0-.36-.14.5.5,0,0,0-.35.14.53.53,0,0,0-.15.36.51.51,0,0,0,.15.35Z"/><path class="cls-3" d="M185.21,23.47a.5.5,0,0,0,0-1,.5.5,0,0,0,0,1Z"/><path class="cls-3" d="M424.62,79.91a.5.5,0,0,0,0-1,.5.5,0,0,0,0,1Z"/><path class="cls-3" d="M184,25a27.71,27.71,0,0,0,5.91-2.42.5.5,0,0,0-.25-.93,5.87,5.87,0,0,0-1.71.27l-1.73.35c-1,.21-2.23.4-2.73,1.44a.5.5,0,0,0,.56.73,4.72,4.72,0,0,0,1.66-.67l1.73-1a.5.5,0,0,0-.51-.86l-1.63,1a4.26,4.26,0,0,1-1.51.63l.56.73c.39-.81,1.58-.86,2.36-1l1.5-.31a5.16,5.16,0,0,1,1.45-.23l-.25-.94A26.11,26.11,0,0,1,183.69,24a.5.5,0,0,0,.26,1Z"/><path d="M155.68,194.49q-9.39,0-16.33-24.09-2.65-9.18-6.63-32.14-10.41,1.43-27.25,5.1L78.33,149q-5.11,13.38-17.45,39.09-3.27,5.72-8.88,5.71a10.47,10.47,0,0,1-7.3-3,9.58,9.58,0,0,1-3.21-7.34q0-4.91,15.41-37.25a10.91,10.91,0,0,1-1.74-6.12q0-8.28,10-10.62Q76.8,107.64,94.55,79.27q24.2-38.67,30.11-38.67,8.06,0,11,11.22l6.43,34.29L157.31,157l5.82,16.12q3,8.26,3,11a9.64,9.64,0,0,1-3.16,7.35A10.33,10.33,0,0,1,155.68,194.49Zm-36-116.65L90.47,124.89q12.35-3.17,37.45-7.65Z"/><path d="M273.33,192.55a10.28,10.28,0,0,1-7.25-3.27Q232.3,155.92,191,144.38l.82,20,.51,20.11a10.37,10.37,0,0,1-2.91,7.5,10.35,10.35,0,0,1-14.59,0,10.37,10.37,0,0,1-2.91-7.5q0-8.07-.77-24t-.76-24a279.81,279.81,0,0,1,2-28q2-18.57,2-27.86,0-5.2-1-15.41t-1-15.41a16.58,16.58,0,0,1,3.27-10.2,11.3,11.3,0,0,1,10.71-4.9l24.6,1.94q14,1.73,23.57,6.83Q276,65.4,276,97q0,15.51-14.08,27.45-11.32,9.6-28.27,14.6,31.74,17,47.45,35.92a10.82,10.82,0,0,1,2.66,6.94,10.31,10.31,0,0,1-3.11,7.45A10,10,0,0,1,273.33,192.55Zm-65-134.91-15.1-1.23,1,12.35q.7,7.56.71,12.35a193.86,193.86,0,0,1-1.32,20.31l-2.15,20.31c1,0,2.44,0,4.44.1s3.52.1,4.54.1q26,0,39-6.94a44.48,44.48,0,0,0,10.61-8.27c3.61-3.8,5.41-7,5.41-9.69q0-14.19-16.13-26.43Q224.55,59.38,208.32,57.64Z"/><path d="M379.85,76.93q-6.53,0-9.8-7.66-2.85-6.52-5.3-8-2.14-1.12-10.62-1.12-14.79,0-32.86,22.66-24.5,30.41-24.49,57.65a32.87,32.87,0,0,0,8.47,22.66q8.67,9.79,20.92,9.8a46.3,46.3,0,0,0,21.13-5.41q5.91-3.06,18.16-12.05,5.82-4.27,8.78-4.28a9.45,9.45,0,0,1,7.34,3.32,10.79,10.79,0,0,1,3,7.39,10.56,10.56,0,0,1-3.87,8.07q-26.94,23.88-54.5,23.88-21.12,0-35.72-16.23a53.83,53.83,0,0,1-14.08-37.15q0-34.59,29-70.92,24.19-30.31,48.78-30.31a78,78,0,0,1,9,.46,34.53,34.53,0,0,1,7,1.48q3.59-5.2,9.29-5.21,7.05,0,8.88,9.29A106.82,106.82,0,0,1,390,65.6,12.42,12.42,0,0,1,387.71,73,9,9,0,0,1,379.85,76.93Z"/></g></g></svg>