<svg width="33" height="33" viewBox="0 0 33 33" fill="none" xmlns="http://www.w3.org/2000/svg">
<path d="M31.68 0H1.32C0.589875 0 0 0.589875 0 1.32V31.68C0 32.4101 0.589875 33 1.32 33H31.68C32.4101 33 33 32.4101 33 31.68V1.32C33 0.589875 32.4101 0 31.68 0ZM25.3811 11.9501C25.3935 12.144 25.3935 12.3461 25.3935 12.5441C25.3935 18.5996 20.7818 25.575 12.3544 25.575C9.75563 25.575 7.34662 24.8201 5.31712 23.5208C5.68837 23.562 6.04313 23.5785 6.42263 23.5785C8.56763 23.5785 10.5394 22.8525 12.111 21.6233C10.098 21.582 8.40675 20.262 7.82925 18.447C8.53463 18.5501 9.16988 18.5501 9.89587 18.3645C8.85937 18.1539 7.92773 17.591 7.25924 16.7714C6.59075 15.9517 6.22663 14.9259 6.22875 13.8683V13.8105C6.83513 14.1529 7.54875 14.3633 8.29538 14.3921C7.66773 13.9738 7.15299 13.4071 6.79681 12.7422C6.44063 12.0774 6.25401 11.3349 6.2535 10.5806C6.2535 9.72675 6.47625 8.94713 6.87638 8.27063C8.02685 9.68689 9.46246 10.8452 11.0899 11.6703C12.7174 12.4954 14.5002 12.9688 16.3226 13.0598C15.675 9.94538 18.0015 7.425 20.7983 7.425C22.1183 7.425 23.3062 7.97775 24.1436 8.86875C25.179 8.67488 26.169 8.28712 27.0518 7.76737C26.7094 8.8275 25.9916 9.72262 25.0388 10.2878C25.9628 10.1888 26.8538 9.933 27.6788 9.57413C27.0559 10.4899 26.2763 11.3025 25.3811 11.9501Z" fill="black"/>
</svg>
